<?xml version="1.0" encoding="utf-8"?>
<!-- Generator: Adobe Illustrator 16.0.0, SVG Export Plug-In . SVG Version: 6.00 Build 0)  -->
<!DOCTYPE svg PUBLIC "-//W3C//DTD SVG 1.1//EN" "http://www.w3.org/Graphics/SVG/1.1/DTD/svg11.dtd">
<svg version="1.1" id="Layer_1" xmlns="http://www.w3.org/2000/svg" xmlns:xlink="http://www.w3.org/1999/xlink" x="0px" y="0px"
	 width="800px" height="600px" viewBox="0 0 800 600" enable-background="new 0 0 800 600" xml:space="preserve">
<path fill="none" stroke="#FFFFFF" stroke-width="6" stroke-miterlimit="10" d="M148.5,357.695h-35.547l-8.252,17.614H70.265
	l59.192-119.653l61.731,119.653h-34.595L148.5,357.695z M135.804,327.544l-6.348-14.759l-6.506,14.759H135.804z"/>
<path fill="none" stroke="#FFFFFF" stroke-width="6" stroke-miterlimit="10" d="M345.11,378.96
	c-17.297-0.794-34.753-12.22-44.434-26.185v22.534h-31.738V263.432h36.816c28.088,0,52.051,15.393,52.051,43.482
	c0,22.692-16.504,34.595-23.01,36.182c0,0,2.539,2.856,8.569,5.713c6.189,2.856,13.647,3.491,13.647,3.491L345.11,378.96z
	 M300.677,323.101c11.267,3.015,21.265-3.016,21.265-13.33c0-9.363-11.584-14.917-21.265-12.537V323.101z"/>
<path fill="none" stroke="#FFFFFF" stroke-width="6" stroke-miterlimit="10" d="M399.062,375.31h-31.738V263.432h31.738V375.31z"/>
<path fill="none" stroke="#FFFFFF" stroke-width="6" stroke-miterlimit="10" d="M463.488,343.571l27,31.738h-81.907V263.432h31.738
	v80.139H463.488z"/>
<path fill="none" stroke="#FFFFFF" stroke-width="6" stroke-miterlimit="10" d="M614.556,295.964h-20.313v79.346H561.87v-79.346
	h-20.63v-32.532h73.315V295.964z"/>
<path fill="none" stroke="#FFFFFF" stroke-width="6" stroke-miterlimit="10" d="M715.481,375.469h-31.738v-40.149h-27.93v40.149
	h-31.738V263.432h31.738v40.149h27.93v-40.149h31.738V375.469z"/>
<path fill="#F2F2F2" d="M560.511,244.54h-34.806V375.74l-62.883-54V244.54h-113.19l94.179-179.291l81.895,0.292v124.889h34.806
	V244.54z M462.822,190.431v-54.109l-25.446,54.109H462.822z"/>
<g>
	<path fill="none" stroke="#FFFFFF" stroke-width="6" stroke-miterlimit="10" d="M173.043,307.661
		c-2.539-26.025,21.106-47.131,47.131-47.131c25.867,0,47.131,21.106,47.131,47.131c0,23.646-18.726,40.625-43.799,38.403
		l15.71,29.676h-36.34C174.154,319.563,175.899,324.165,173.043,307.661z M233.187,307.661c0-7.141-5.872-13.013-13.013-13.013
		s-13.013,5.872-13.013,13.013c0,7.142,5.872,13.013,13.013,13.013S233.187,314.803,233.187,307.661z"/>
</g>
<g>
	<path fill="#FFFFFF" d="M209.574,392.9c-0.405,0-0.806-0.203-1.2-0.608s-0.558-0.822-0.49-1.251
		c0.225-1.69,0.338-2.513,0.338-2.468c0-2.097-0.733-3.145-2.198-3.145c-2.682,0-6.807,2.299-12.374,6.897
		c-5.635,4.688-8.452,8.306-8.452,10.852c0,1.082,1.104,1.961,3.313,2.638c1.06,0.338,3.876,0.901,8.452,1.69
		c4.012,0.698,6.931,1.487,8.756,2.366c2.885,1.375,4.328,3.325,4.328,5.849c0,2.976-1.702,5.771-5.105,8.385
		c-3.201,2.456-6.289,3.686-9.264,3.686h-1.521c-1.916,0-3.73-0.587-5.443-1.759c-1.961-1.33-2.941-2.975-2.941-4.936
		c0-0.519,0.157-1.217,0.473-2.097c0.383-1.036,0.778-1.555,1.184-1.555c0.811,0,1.217,0.395,1.217,1.184
		c0,0.315-0.073,0.722-0.22,1.217c-0.146,0.496-0.22,0.789-0.22,0.879c0,1.172,0.597,2.13,1.792,2.874
		c1.059,0.653,2.333,0.98,3.82,0.98c3.02,0,5.894-0.891,8.621-2.671c2.997-1.961,4.497-4.282,4.497-6.965
		c0-1.442-1.217-2.569-3.651-3.381c-1.24-0.405-3.967-0.946-8.182-1.623c-1.961-0.292-4.857-0.9-8.688-1.825
		c-2.976-1.015-4.463-2.456-4.463-4.327c0-4.644,3.132-9.433,9.398-14.369c5.883-4.62,10.954-6.931,15.214-6.931
		c3.494,0,5.24,2.176,5.24,6.525c0,0.676-0.203,1.453-0.608,2.333C210.746,392.382,210.205,392.9,209.574,392.9z"/>
	<path fill="#FFFFFF" d="M218.754,425.999c-1.96,0.157-3.527-0.508-4.699-1.995c-1.082-1.353-1.623-3.054-1.623-5.104
		c0-3.471,0.828-7.229,2.485-11.275c1.656-4.045,3.206-6.068,4.648-6.068c1.307,0,1.961,0.553,1.961,1.656
		c0,0.316-0.372,0.97-1.116,1.961c-3.562,4.688-5.342,9.072-5.342,13.151c0,3.517,0.879,5.274,2.637,5.274
		c2.659,0,5.262-2.423,7.81-7.269c2.231-4.192,3.347-7.562,3.347-10.109c0-3.673-0.913-5.511-2.738-5.511
		c-1.398,0-2.886,0.744-4.463,2.231l-0.507-0.304c-0.316-0.181-0.473-0.451-0.473-0.812c0-0.767,0.812-1.544,2.434-2.333
		c1.353-0.653,2.355-0.98,3.009-0.98c3.651,0,5.544,2.817,5.68,8.452c0.067,2.728-1.139,6.322-3.618,10.785
		C225.302,422.956,222.158,425.706,218.754,425.999z"/>
	<path fill="#FFFFFF" d="M255.152,393.036c-0.473-0.158-0.778-0.586-0.913-1.285c-0.067-0.586-0.135-1.16-0.203-1.725
		c-0.113-0.946-0.507-1.904-1.183-2.873c-0.744-1.104-1.533-1.657-2.367-1.657c-2.344,0-4.159,2.829-5.443,8.486
		c-0.654,2.862-1.161,7.258-1.521,13.186c0.271-0.045,0.89-0.181,1.859-0.406c0.789-0.18,1.42-0.271,1.893-0.271
		c1.983,0,3.291,0.756,3.922,2.266c0.112,0.271,0.169,0.553,0.169,0.845c0,0.496-0.158,0.801-0.476,0.913
		c-0.339,0.113-0.758-0.112-1.255-0.676c-0.657-0.767-1.46-1.15-2.41-1.15c-0.679,0-1.471,0.158-2.376,0.474
		c-0.905,0.316-1.482,0.654-1.73,1.015c-0.136,0.226-0.204,0.845-0.204,1.859c0,1.375,0.169,3.814,0.507,7.319
		s0.507,5.516,0.507,6.035c0,1.487-0.609,2.23-1.826,2.23c-1.195,0-1.725-0.8-1.589-2.4c0-0.383,0-0.552,0-0.507
		c0-1.082-0.101-5.601-0.304-13.557c-0.722,0.36-1.893,1.025-3.516,1.994c-0.586,0.361-0.969,0.541-1.149,0.541
		c-0.789,0-1.183-0.563-1.183-1.69c0-0.36,0.09-0.619,0.271-0.777c0.587-0.541,2.313-1.465,5.181-2.772l0.643-0.304
		c0.677-7.663,1.298-12.6,1.862-14.809c1.67-6.716,4.56-10.074,8.668-10.074c1.445,0,2.721,0.8,3.827,2.4
		c0.993,1.42,1.49,2.851,1.49,4.293C256.302,391.695,255.918,392.721,255.152,393.036z"/>
	<path fill="#FFFFFF" d="M263.116,403.55c1.014-0.247,2.231-0.372,3.651-0.372c0.654,0,1.431,0.237,2.333,0.71
		c1.149,0.632,1.724,1.376,1.724,2.231c0,0.158-0.034,0.305-0.102,0.439l-0.034,0.102c0-0.045-0.045,0.046-0.135,0.271
		c-0.248,0.091-0.338,0.147-0.271,0.169h-0.067c-0.135,0.068-0.293,0.102-0.474,0.102c-0.135,0-0.316-0.123-0.541-0.372
		c-0.451-1.081-1.195-1.622-2.231-1.622c-0.361,0-0.767,0.067-1.217,0.202c-0.946,0.249-1.916,0.677-2.907,1.285
		c0,0.113-0.012,0.293-0.034,0.541c-0.293,2.276-0.372,5.026-0.236,8.249c0.225,5.973,1.566,8.959,4.023,8.959
		c0.698,0,1.341-0.36,1.927-1.082c0.586-0.721,0.991-1.081,1.217-1.081c0.721,0,1.082,0.338,1.082,1.014
		c0,0.812-0.665,1.577-1.995,2.299c-1.104,0.586-1.927,0.879-2.468,0.879c-2.051,0-3.686-1.115-4.902-3.347
		c-0.857-1.6-1.386-3.369-1.589-5.308c-0.361-3.426-0.384-6.817-0.068-10.177c-1.263,0.451-2.784,1.33-4.564,2.638
		c-0.226,0.181-0.439,0.271-0.643,0.271c-0.608,0-0.913-0.631-0.913-1.894c0-0.789,1.859-2.063,5.578-3.82
		c0.225-0.045,0.451-0.102,0.676-0.169c0.157-1.533,0.406-3.82,0.744-6.863c0.338-3.043,1.093-4.564,2.265-4.564
		c0.969,0,1.488,0.632,1.555,1.894L263.116,403.55z"/>
	<path fill="#FFFFFF" d="M297.517,421.604c-2.164,0-4.293-1.769-6.39-5.308c-1.375-2.344-2.592-5.161-3.651-8.452
		c-0.834,2.142-2.209,5.466-4.125,9.974c-2.683,5.702-4.97,8.554-6.863,8.554c-1.352,0-2.333-1.24-2.941-3.72
		c-0.406-1.712-0.563-3.245-0.474-4.598c0.135-2.411,0.406-5.804,0.812-10.176c0.496-3.629,1.33-5.443,2.502-5.443
		c1.036,0,1.555,0.665,1.555,1.994c0,0.136-0.034,0.339-0.102,0.609c-1.443,6.559-2.164,11.28-2.164,14.165
		c-0.226,2.772-0.068,4.158,0.473,4.158c1.262,0,3.02-2.32,5.274-6.964c1.488-3.043,2.739-6.019,3.753-8.926
		c0.271-0.969,0.653-2.321,1.149-4.057c0.473-1.601,1.048-2.4,1.724-2.4c0.315,0,0.688,0.124,1.116,0.372
		c0.563,0.361,0.823,0.802,0.778,1.321c-0.203,1.942,0.36,4.923,1.69,8.942c1.623,4.9,3.651,7.35,6.085,7.35
		c1.171,0,2.36-1.653,3.566-4.96c1.206-3.308,1.809-6.541,1.809-9.702c0-0.723-0.045-1.399-0.135-2.031
		c-0.361-2.979-1.172-4.47-2.435-4.47c-0.067,0-0.293,0.067-0.676,0.202c-0.384,0.136-0.643,0.203-0.778,0.203
		c-0.969,0-1.454-0.18-1.454-0.541c0-0.383,0.389-0.794,1.167-1.234c0.777-0.439,1.504-0.659,2.181-0.659
		c1.758,0,3.11,1.353,4.057,4.058c0.721,2.006,1.082,4.124,1.082,6.355c0,2.119-0.767,4.993-2.299,8.621
		C301.935,419.351,299.838,421.604,297.517,421.604z"/>
	<path fill="#FFFFFF" d="M326.728,423.058c-2.15-0.767-3.225-3.268-3.225-7.506c0-0.45,0-0.912,0-1.386
		c-2.223,2.975-4.671,5.691-7.343,8.147c-3.436,3.155-6.142,4.733-8.118,4.733c-0.651,0-1.213-0.181-1.684-0.541
		c-0.808-0.608-1.213-1.601-1.213-2.976c0-2.816,1.51-6.614,4.53-11.393c2.93-4.575,6.131-8.339,9.602-11.292
		c3.787-3.224,6.593-4.237,8.418-3.043c0.856,0.541,1.285,1.68,1.285,3.415c0,2.073-0.71,3.178-2.13,3.313
		c-0.992,0.068-1.488-0.281-1.488-1.048c0-0.112,0.022-0.214,0.068-0.305c0.428-1.059,0.631-2.005,0.608-2.84
		c0-0.495-0.056-0.731-0.169-0.71c-2.231,0.406-5.843,3.85-10.835,10.329c-4.993,6.479-7.489,10.948-7.489,13.404
		c0,0.856,0.383,1.285,1.15,1.285c1.96,0,5.037-2.536,9.229-7.606c2.907-3.517,4.497-5.466,4.767-5.85
		c1.285-1.78,2.017-3.414,2.197-4.902c0.113-1.014,0.653-1.521,1.623-1.521c1.375,0,1.927,0.665,1.656,1.994
		c-1.104,5.793-1.656,9.32-1.656,10.582c0,2.299,0.507,3.584,1.521,3.854c0.36,0.09,0.744,0.022,1.15-0.203
		c0.338-0.203,0.529-0.405,0.575-0.608c0.225-0.969,0.789-1.454,1.69-1.454c0.541,0,0.811,0.293,0.811,0.879
		c0,0.249-0.068,0.553-0.203,0.913c-0.702,1.758-1.969,2.637-3.801,2.637C327.757,423.361,327.248,423.261,326.728,423.058z"/>
	<path fill="#FFFFFF" d="M339.074,407.506c2.794-7.122,5.792-10.684,8.993-10.684c2.118,0,3.358,0.97,3.719,2.907
		c0.203,1.173-0.181,1.758-1.149,1.758c-0.316,0-0.541-0.135-0.676-0.405c-0.09-0.203-0.181-0.484-0.271-0.845l-0.067-0.372
		c-0.09-0.451-0.383-0.677-0.879-0.677c-1.104,0-2.514,1.173-4.226,3.517c-2.006,2.772-3.415,5.297-4.226,7.573
		c-0.857,2.434-1.263,5.229-1.217,8.384c0,0.113,0.079,1.95,0.237,5.511c0,0.428-0.22,0.828-0.659,1.2s-0.874,0.558-1.302,0.558
		c-1.263,0-1.814-0.979-1.657-2.94c0.406-4.553,0.609-8.34,0.609-11.36c0-3.11-0.203-6.648-0.609-10.615
		c-0.045-0.451,0.147-0.913,0.575-1.387c0.428-0.473,0.868-0.71,1.319-0.71c0.744,0,1.285,0.372,1.623,1.116
		c0.248,0.541,0.338,1.048,0.271,1.521C339.187,403.922,339.052,405.905,339.074,407.506z"/>
	<path fill="#FFFFFF" d="M351.672,412.848c-0.406,0.36-0.84,1.453-1.302,3.279c-0.462,1.825-0.693,3.414-0.693,4.767
		c0,1.758,1.16,2.637,3.482,2.637c2.231,0,4.846-1.295,7.844-3.888c2.907-2.523,4.924-5.127,6.051-7.81h1.082
		c0.428,0.406,0.575,0.789,0.439,1.149c-1.307,3.787-3.494,6.931-6.559,9.433c-2.908,2.411-5.827,3.617-8.756,3.617
		c-2.164,0-3.798-0.743-4.902-2.231c-1.082-1.42-1.555-3.335-1.42-5.747c0.181-3.381,1.983-7.573,5.409-12.576
		c3.674-5.364,7.021-8.047,10.041-8.047c1.015,0,1.792,0.474,2.333,1.42c0.406,0.699,0.608,1.432,0.608,2.197
		c0,2.21-0.936,4.745-2.806,7.607c-2.209,3.448-4.745,5.173-7.606,5.173c-1.353,0-2.39-0.293-3.11-0.879L351.672,412.848z
		 M361.984,399.798c-0.857,0.202-1.635,0.721-2.333,1.555c-4.688,5.5-7.032,8.7-7.032,9.602c0,0.248,0.519,0.405,1.555,0.474
		c1.758,0.09,3.674-1.172,5.748-3.787c2.028-2.547,3.043-4.822,3.043-6.829C362.964,399.955,362.637,399.617,361.984,399.798z"/>
	<path fill="#FFFFFF" d="M411.496,392.258c-0.33,0.023-0.562-0.09-0.693-0.338c-0.133-0.248-0.188-0.519-0.164-0.812
		c0-0.292,0-0.563,0-0.812c0-0.811-0.283-1.352-0.846-1.622c-0.451-0.203-1.352-0.305-2.705-0.305c-3.65,0-8.801,1.172-15.45,3.517
		c-0.293,0.112-1.5,0.885-3.618,2.315c-2.119,1.432-3.313,2.146-3.583,2.146c-1.194,0-1.792-0.597-1.792-1.792
		c0-1.036,2.412-2.591,7.235-4.665c3.313-1.42,6.469-2.604,9.466-3.55c1.014-0.315,3.459-0.732,7.336-1.251
		c0.383-0.045,0.778-0.067,1.183-0.067c1.51,0,2.795,0.304,3.855,0.912c1.148,0.722,1.724,1.68,1.724,2.874
		c0,0.812-0.275,1.69-0.825,2.637C412.311,391.987,411.937,392.258,411.496,392.258z M392.788,405.443
		c0.518-0.112,1.927-0.563,4.226-1.353c1.758-0.586,3.166-0.879,4.227-0.879c3.357,0,5.295,0.801,5.814,2.4l-0.305,1.556
		c-0.901,0.067-1.589-0.214-2.063-0.846c-0.27-0.405-1.07-0.608-2.4-0.608c-1.037,0-2.794,0.305-5.273,0.913
		c-2.772,0.676-4.238,1.284-4.395,1.825c-0.271,1.06-0.361,2.75-0.271,5.071c0.09,1.804,0.18,3.606,0.271,5.409
		c0.045,1.668,0.203,2.863,0.473,3.584c0.496,1.194,1.454,1.792,2.874,1.792c1.488,0,3.876-0.429,7.167-1.285
		c3.426-0.901,6.052-1.353,7.877-1.353c1.51,0,2.885,0.465,4.125,1.394c1.396,1.088,2.096,2.493,2.096,4.215l-1.487,0.85
		c-1.06-2.412-2.987-3.618-5.781-3.618c-1.646,0-4.057,0.4-7.235,1.2c-3.177,0.8-5.589,1.2-7.234,1.2
		c-2.547,0-4.271-0.879-5.173-2.637c-0.608-1.149-0.913-2.986-0.913-5.511c0-1.014,0.056-2.468,0.169-4.361
		c0.112-2.006,0.18-3.459,0.203-4.361c-1.149,0.654-1.905,0.98-2.265,0.98c-0.992,0-1.487-0.643-1.487-1.927
		c0-0.744,1.285-1.701,3.854-2.874c0.113-1.667,0.349-4.406,0.71-8.215c0.563-4.778,1.476-7.168,2.739-7.168
		c1.217,0,1.826,0.722,1.826,2.164c0-0.045-0.282,1.161-0.845,3.617C393.835,398.738,393.329,401.68,392.788,405.443z"/>
	<path fill="#FFFFFF" d="M422.188,414.64l0.574-1.015c4.846-8.204,8.283-12.307,10.312-12.307c1.915,0,3.188,1.409,3.82,4.227
		c0.202,2.142,0.405,4.282,0.608,6.424c0.36,3.516,0.586,5.511,0.676,5.983c0.519,3.156,1.273,4.733,2.266,4.733
		c0.428,0,1.014-0.395,1.758-1.184l1.251,0.406c0.045,0.879-0.338,1.6-1.149,2.163c-0.608,0.429-1.172,0.643-1.69,0.643
		c-3.245,0-5.252-3.662-6.019-10.987c-0.135-1.735-0.371-4.113-0.709-7.134c-0.248-1.848-0.564-2.772-0.947-2.772
		c-0.766,0-2.654,2.373-5.662,7.117c-3.01,4.744-5.134,9.123-6.373,13.134c-0.316,1.082-0.868,1.623-1.656,1.623
		c-1.015,0-1.477-0.507-1.387-1.521c0.023-0.36,0.744-5.139,2.164-14.334c0.067-1.15,0.18-2.739,0.338-4.768
		c0.18-1.848,0.855-2.772,2.028-2.772c0.677,0,1.138,0.249,1.386,0.744c0.136,0.519,0.271,1.025,0.406,1.521L422.188,414.64z"/>
	<path fill="#FFFFFF" d="M455.946,446.385c-2.84,0-5.427-1.296-7.759-3.888c-2.333-2.592-3.5-5.33-3.5-8.215
		c0-1.308,0.434-1.961,1.299-1.961c0.623,0,0.934,0.383,0.934,1.149c-0.068,2.569,0.778,4.885,2.539,6.947s3.725,3.094,5.893,3.094
		c4.47,0,7.777-3.303,9.922-9.906c1.377-4.215,2.066-8.418,2.066-12.61c0-8.385-0.744-12.576-2.231-12.576
		c-0.091,0-0.608,0.721-1.556,2.163c-2.817,4.26-4.767,7.021-5.849,8.283c-2.886,3.358-5.533,5.037-7.944,5.037
		c-1.285,0-2.288-0.484-3.01-1.453c-0.631-0.834-0.946-1.849-0.946-3.043c0-3.787,2.405-8.683,7.218-14.689s8.74-9.01,11.783-9.01
		c1.284,0,2.287,0.688,3.008,2.062c0.586,1.037,0.879,2.097,0.879,3.179c0,1.893-0.518,2.84-1.555,2.84
		c-1.263,0-1.803-1.139-1.623-3.415c0.09-1.42-0.169-2.13-0.777-2.13c-1.668,0-3.934,1.635-6.795,4.902
		c-2.097,2.389-3.754,4.62-4.971,6.694c-0.924,1.081-1.871,2.603-2.84,4.563c-1.148,2.299-1.725,4.137-1.725,5.511
		c0,0.97,0.17,1.454,0.508,1.454c1.645,0,3.787-1.42,6.424-4.26c0.969-1.037,3.121-3.663,6.457-7.878
		c2.231-2.84,3.674-4.26,4.328-4.26c1.51,0,2.658,2.231,3.447,6.694c0.52,3.021,0.778,5.973,0.778,8.857
		c0,7.189-1.42,13.298-4.26,18.324S459.868,446.385,455.946,446.385z"/>
	<path fill="#FFFFFF" d="M480.475,426.709c-2.141,0-3.775-1.669-4.902-5.004c-0.789-2.299-1.183-4.541-1.183-6.728
		c0-2.006,0.247-4.474,0.743-7.404c0.744-4.237,1.759-6.355,3.043-6.355c1.015,0,1.521,0.586,1.521,1.758
		c0,0.541-0.315,1.555-0.946,3.043c-0.654,1.622-1.128,4.384-1.42,8.282c0.045,1.849,0.045,2.953,0,3.313
		c0.292,1.397,0.586,2.795,0.879,4.192c0.586,1.848,1.454,2.772,2.603,2.772c0.271,0,0.451-0.046,0.541-0.136
		c0.316-0.428,0.756-0.777,1.319-1.048c0.474,0.405,0.71,0.789,0.71,1.149c0,0.608-0.395,1.138-1.184,1.589
		C481.568,426.517,480.993,426.709,480.475,426.709z M478.447,393.307c-0.496,0-0.92-0.215-1.269-0.643
		c-0.35-0.428-0.524-0.834-0.524-1.218c0-0.45,0.175-0.9,0.524-1.352c0.349-0.451,0.794-0.677,1.335-0.677
		c1.172,0,1.759,0.643,1.759,1.928C480.272,392.652,479.664,393.307,478.447,393.307z"/>
	<path fill="#FFFFFF" d="M491.211,414.64l0.575-1.015c4.846-8.204,8.282-12.307,10.312-12.307c1.915,0,3.189,1.409,3.82,4.227
		c0.203,2.142,0.406,4.282,0.608,6.424c0.36,3.516,0.586,5.511,0.677,5.983c0.518,3.156,1.272,4.733,2.265,4.733
		c0.428,0,1.015-0.395,1.758-1.184l1.251,0.406c0.045,0.879-0.338,1.6-1.149,2.163c-0.608,0.429-1.173,0.643-1.69,0.643
		c-3.246,0-5.252-3.662-6.018-10.987c-0.136-1.735-0.372-4.113-0.711-7.134c-0.248-1.848-0.563-2.772-0.945-2.772
		c-0.768,0-2.654,2.373-5.664,7.117c-3.008,4.744-5.133,9.123-6.372,13.134c-0.315,1.082-0.868,1.623-1.657,1.623
		c-1.014,0-1.476-0.507-1.386-1.521c0.022-0.36,0.743-5.139,2.163-14.334c0.068-1.15,0.181-2.739,0.339-4.768
		c0.181-1.848,0.856-2.772,2.028-2.772c0.676,0,1.138,0.249,1.387,0.744c0.135,0.519,0.27,1.025,0.405,1.521L491.211,414.64z"/>
	<path fill="#FFFFFF" d="M520.137,412.848c-0.406,0.36-0.841,1.453-1.303,3.279c-0.462,1.825-0.692,3.414-0.692,4.767
		c0,1.758,1.16,2.637,3.481,2.637c2.232,0,4.846-1.295,7.844-3.888c2.908-2.523,4.925-5.127,6.052-7.81h1.082
		c0.428,0.406,0.575,0.789,0.439,1.149c-1.308,3.787-3.493,6.931-6.559,9.433c-2.907,2.411-5.827,3.617-8.757,3.617
		c-2.163,0-3.798-0.743-4.902-2.231c-1.081-1.42-1.555-3.335-1.42-5.747c0.182-3.381,1.983-7.573,5.41-12.576
		c3.674-5.364,7.02-8.047,10.041-8.047c1.014,0,1.791,0.474,2.332,1.42c0.406,0.699,0.609,1.432,0.609,2.197
		c0,2.21-0.936,4.745-2.807,7.607c-2.209,3.448-4.744,5.173-7.606,5.173c-1.353,0-2.39-0.293-3.11-0.879L520.137,412.848z
		 M530.447,399.798c-0.856,0.202-1.635,0.721-2.332,1.555c-4.688,5.5-7.033,8.7-7.033,9.602c0,0.248,0.52,0.405,1.556,0.474
		c1.759,0.09,3.674-1.172,5.747-3.787c2.029-2.547,3.043-4.822,3.043-6.829C531.428,399.955,531.102,399.617,530.447,399.798z"/>
	<path fill="#FFFFFF" d="M544.228,412.848c-0.405,0.36-0.841,1.453-1.302,3.279c-0.463,1.825-0.693,3.414-0.693,4.767
		c0,1.758,1.16,2.637,3.482,2.637c2.231,0,4.846-1.295,7.844-3.888c2.907-2.523,4.924-5.127,6.052-7.81h1.082
		c0.428,0.406,0.574,0.789,0.439,1.149c-1.308,3.787-3.494,6.931-6.56,9.433c-2.907,2.411-5.826,3.617-8.756,3.617
		c-2.164,0-3.799-0.743-4.902-2.231c-1.082-1.42-1.555-3.335-1.42-5.747c0.181-3.381,1.982-7.573,5.409-12.576
		c3.674-5.364,7.021-8.047,10.041-8.047c1.015,0,1.792,0.474,2.333,1.42c0.405,0.699,0.608,1.432,0.608,2.197
		c0,2.21-0.936,4.745-2.806,7.607c-2.209,3.448-4.745,5.173-7.607,5.173c-1.352,0-2.389-0.293-3.109-0.879L544.228,412.848z
		 M554.539,399.798c-0.857,0.202-1.635,0.721-2.333,1.555c-4.688,5.5-7.032,8.7-7.032,9.602c0,0.248,0.519,0.405,1.555,0.474
		c1.759,0.09,3.674-1.172,5.748-3.787c2.028-2.547,3.043-4.822,3.043-6.829C555.52,399.955,555.192,399.617,554.539,399.798z"/>
	<path fill="#FFFFFF" d="M567.878,407.506c2.795-7.122,5.792-10.684,8.993-10.684c2.118,0,3.358,0.97,3.719,2.907
		c0.203,1.173-0.181,1.758-1.149,1.758c-0.315,0-0.541-0.135-0.676-0.405c-0.091-0.203-0.181-0.484-0.271-0.845l-0.068-0.372
		c-0.09-0.451-0.383-0.677-0.879-0.677c-1.104,0-2.513,1.173-4.226,3.517c-2.007,2.772-3.415,5.297-4.227,7.573
		c-0.856,2.434-1.262,5.229-1.217,8.384c0,0.113,0.079,1.95,0.236,5.511c0,0.428-0.22,0.828-0.659,1.2s-0.873,0.558-1.301,0.558
		c-1.263,0-1.814-0.979-1.657-2.94c0.406-4.553,0.608-8.34,0.608-11.36c0-3.11-0.202-6.648-0.608-10.615
		c-0.045-0.451,0.147-0.913,0.575-1.387c0.428-0.473,0.867-0.71,1.318-0.71c0.744,0,1.284,0.372,1.623,1.116
		c0.247,0.541,0.338,1.048,0.271,1.521C567.99,403.922,567.855,405.905,567.878,407.506z"/>
	<path fill="#FFFFFF" d="M586.729,426.709c-2.142,0-3.775-1.669-4.902-5.004c-0.789-2.299-1.184-4.541-1.184-6.728
		c0-2.006,0.248-4.474,0.744-7.404c0.744-4.237,1.758-6.355,3.043-6.355c1.014,0,1.521,0.586,1.521,1.758
		c0,0.541-0.316,1.555-0.947,3.043c-0.653,1.622-1.127,4.384-1.42,8.282c0.045,1.849,0.045,2.953,0,3.313
		c0.293,1.397,0.586,2.795,0.879,4.192c0.586,1.848,1.454,2.772,2.604,2.772c0.271,0,0.451-0.046,0.541-0.136
		c0.315-0.428,0.755-0.777,1.318-1.048c0.474,0.405,0.71,0.789,0.71,1.149c0,0.608-0.395,1.138-1.183,1.589
		C587.821,426.517,587.247,426.709,586.729,426.709z M584.7,393.307c-0.496,0-0.919-0.215-1.268-0.643
		c-0.35-0.428-0.524-0.834-0.524-1.218c0-0.45,0.175-0.9,0.524-1.352c0.349-0.451,0.794-0.677,1.335-0.677
		c1.172,0,1.758,0.643,1.758,1.928C586.525,392.652,585.917,393.307,584.7,393.307z"/>
	<path fill="#FFFFFF" d="M597.465,414.64l0.574-1.015c4.846-8.204,8.283-12.307,10.312-12.307c1.916,0,3.189,1.409,3.82,4.227
		c0.203,2.142,0.406,4.282,0.608,6.424c0.36,3.516,0.586,5.511,0.677,5.983c0.519,3.156,1.273,4.733,2.265,4.733
		c0.429,0,1.015-0.395,1.759-1.184l1.251,0.406c0.045,0.879-0.339,1.6-1.15,2.163c-0.608,0.429-1.172,0.643-1.689,0.643
		c-3.246,0-5.252-3.662-6.019-10.987c-0.135-1.735-0.372-4.113-0.71-7.134c-0.248-1.848-0.563-2.772-0.946-2.772
		c-0.767,0-2.654,2.373-5.663,7.117s-5.134,9.123-6.373,13.134c-0.315,1.082-0.867,1.623-1.656,1.623
		c-1.015,0-1.476-0.507-1.387-1.521c0.023-0.36,0.744-5.139,2.164-14.334c0.067-1.15,0.181-2.739,0.338-4.768
		c0.181-1.848,0.856-2.772,2.029-2.772c0.676,0,1.138,0.249,1.386,0.744c0.135,0.519,0.271,1.025,0.405,1.521L597.465,414.64z"/>
	<path fill="#FFFFFF" d="M631.226,446.385c-2.84,0-5.427-1.296-7.759-3.888c-2.333-2.592-3.499-5.33-3.499-8.215
		c0-1.308,0.433-1.961,1.299-1.961c0.621,0,0.932,0.383,0.932,1.149c-0.067,2.569,0.779,4.885,2.54,6.947s3.725,3.094,5.893,3.094
		c4.47,0,7.777-3.303,9.923-9.906c1.376-4.215,2.065-8.418,2.065-12.61c0-8.385-0.744-12.576-2.231-12.576
		c-0.091,0-0.608,0.721-1.556,2.163c-2.817,4.26-4.767,7.021-5.849,8.283c-2.885,3.358-5.533,5.037-7.944,5.037
		c-1.285,0-2.288-0.484-3.01-1.453c-0.63-0.834-0.946-1.849-0.946-3.043c0-3.787,2.405-8.683,7.218-14.689s8.739-9.01,11.782-9.01
		c1.285,0,2.287,0.688,3.009,2.062c0.586,1.037,0.88,2.097,0.88,3.179c0,1.893-0.52,2.84-1.556,2.84
		c-1.263,0-1.804-1.139-1.623-3.415c0.09-1.42-0.169-2.13-0.777-2.13c-1.668,0-3.934,1.635-6.796,4.902
		c-2.096,2.389-3.752,4.62-4.97,6.694c-0.924,1.081-1.871,2.603-2.84,4.563c-1.149,2.299-1.724,4.137-1.724,5.511
		c0,0.97,0.169,1.454,0.507,1.454c1.645,0,3.786-1.42,6.424-4.26c0.969-1.037,3.121-3.663,6.457-7.878
		c2.231-2.84,3.674-4.26,4.327-4.26c1.51,0,2.659,2.231,3.449,6.694c0.518,3.021,0.777,5.973,0.777,8.857
		c0,7.189-1.42,13.298-4.26,18.324S635.147,446.385,631.226,446.385z"/>
</g>
</svg>
