<!DOCTYPE svg PUBLIC "-//W3C//DTD SVG 1.1//EN" "http://www.w3.org/Graphics/SVG/1.1/DTD/svg11.dtd">
<svg xmlns="http://www.w3.org/2000/svg" xmlns:xlink="http://www.w3.org/1999/xlink" version="1.1" viewBox="0 0 453 693"><defs/><g transform="translate(0.5,0.5)"><path d="M 220.71 80.86 L 220.71 108.5" fill="none" stroke="#fff" stroke-width="3" stroke-miterlimit="10" pointer-events="none"/><path d="M 220.71 117.5 L 216.21 108.5 L 225.21 108.5 Z" fill="#fff" stroke="#fff" stroke-width="3" stroke-miterlimit="10" pointer-events="none"/><ellipse cx="221" cy="41" rx="60.00000000000001" ry="40" fill="none" stroke="#fff" stroke-width="3" pointer-events="none"/><path d="M 181 161 L 143.35 161" fill="none" stroke="#fff" stroke-width="3" stroke-miterlimit="10" pointer-events="none"/><path d="M 134.35 161 L 143.35 156.5 L 143.35 165.5 Z" fill="#fff" stroke="#fff" stroke-width="3" stroke-miterlimit="10" pointer-events="none"/><path d="M 221 201 L 221 238.65" fill="none" stroke="#fff" stroke-width="3" stroke-miterlimit="10" pointer-events="none"/><path d="M 221 247.65 L 216.5 238.65 L 225.5 238.65 Z" fill="#fff" stroke="#fff" stroke-width="3" stroke-miterlimit="10" pointer-events="none"/><path d="M 261 161 L 308.65 161" fill="none" stroke="#fff" stroke-width="3" stroke-miterlimit="10" pointer-events="none"/><path d="M 317.65 161 L 308.65 165.5 L 308.65 156.5 Z" fill="#fff" stroke="#fff" stroke-width="3" stroke-miterlimit="10" pointer-events="none"/><path d="M 221 121 L 261 161 L 221 201 L 181 161 Z" fill="none" stroke="#fff" stroke-width="3" stroke-miterlimit="10" pointer-events="none"/><path d="M 61 201 L 61 248.65" fill="none" stroke="#fff" stroke-width="3" stroke-miterlimit="10" pointer-events="none"/><path d="M 61 257.65 L 56.5 248.65 L 65.5 248.65 Z" fill="#fff" stroke="#fff" stroke-width="3" stroke-miterlimit="10" pointer-events="none"/><path d="M 31 141 C 7 141 1 161 20.2 165 C 1 173.8 22.6 193 38.2 185 C 49 201 85 201 97 185 C 121 185 121 169 106 161 C 121 145 97 129 76 137 C 61 125 37 125 31 141 Z" fill="none" stroke="#00a4bc" stroke-width="3" stroke-miterlimit="10" pointer-events="none"/><path d="M 391 197 L 390.71 223.71 L 390.71 238.5" fill="none" stroke="#fff" stroke-width="3" stroke-miterlimit="10" pointer-events="none"/><path d="M 390.71 247.5 L 386.21 238.5 L 395.21 238.5 Z" fill="#fff" stroke="#fff" stroke-width="3" stroke-miterlimit="10" pointer-events="none"/><path d="M 361 137 C 337 137 331 157 350.2 161 C 331 169.8 352.6 189 368.2 181 C 379 197 415 197 427 181 C 451 181 451 165 436 157 C 451 141 427 125 406 133 C 391 121 367 121 361 137 Z" fill="none" stroke="#00a4bc" stroke-width="3" stroke-miterlimit="10" pointer-events="none"/><path d="M 390.71 331 L 390.71 350.86 L 390.71 340.86 L 390.82 348.65" fill="none" stroke="#fff" stroke-width="3" stroke-miterlimit="10" pointer-events="none"/><path d="M 390.95 357.65 L 386.33 348.71 L 395.32 348.58 Z" fill="#fff" stroke="#fff" stroke-width="3" stroke-miterlimit="10" pointer-events="none"/><path d="M 331 251 L 451 251 L 451 319 Q 421 297.4 391 319 Q 361 340.6 331 319 L 331 263 Z" fill="none" stroke="#fff" stroke-width="3" stroke-miterlimit="10" pointer-events="none"/><path d="M 161 291 L 133.35 291" fill="none" stroke="#fff" stroke-width="3" stroke-miterlimit="10" pointer-events="none"/><path d="M 124.35 291 L 133.35 286.5 L 133.35 295.5 Z" fill="#fff" stroke="#fff" stroke-width="3" stroke-miterlimit="10" pointer-events="none"/><path d="M 191 271 C 167 271 161 291 180.2 295 C 161 303.8 182.6 323 198.2 315 C 209 331 245 331 257 315 C 281 315 281 299 266 291 C 281 275 257 259 236 267 C 221 255 197 255 191 271 Z" fill="none" stroke="#00a4bc" stroke-width="3" stroke-miterlimit="10" pointer-events="none"/><path d="M 61 321 L 61 348.65" fill="none" stroke="#fff" stroke-width="3" stroke-miterlimit="10" pointer-events="none"/><path d="M 61 357.65 L 56.5 348.65 L 65.5 348.65 Z" fill="#fff" stroke="#fff" stroke-width="3" stroke-miterlimit="10" pointer-events="none"/><path d="M 1 321 L 25 261 L 121 261 L 97 321 Z" fill="none" stroke="#fff" stroke-width="3" stroke-miterlimit="10" pointer-events="none"/><path d="M 220.71 440.71 L 220.71 466.57 L 220.71 478.5" fill="none" stroke="#fff" stroke-width="3" stroke-miterlimit="10" pointer-events="none"/><path d="M 220.71 487.5 L 216.21 478.5 L 225.21 478.5 Z" fill="#fff" stroke="#fff" stroke-width="3" stroke-miterlimit="10" pointer-events="none"/><path d="M 181 401 L 143.35 401" fill="none" stroke="#fff" stroke-width="3" stroke-miterlimit="10" pointer-events="none"/><path d="M 134.35 401 L 143.35 396.5 L 143.35 405.5 Z" fill="#fff" stroke="#fff" stroke-width="3" stroke-miterlimit="10" pointer-events="none"/><path d="M 221 361 L 261 401 L 221 441 L 181 401 Z" fill="none" stroke="#fff" stroke-width="3" stroke-miterlimit="10" pointer-events="none"/><path d="M 331 401 L 283.35 401" fill="none" stroke="#fff" stroke-width="3" stroke-miterlimit="10" pointer-events="none"/><path d="M 274.35 401 L 283.35 396.5 L 283.35 405.5 Z" fill="#fff" stroke="#fff" stroke-width="3" stroke-miterlimit="10" pointer-events="none"/><path d="M 391 441 L 390.71 650.86 L 293.07 650.86" fill="none" stroke="#fff" stroke-width="3" stroke-miterlimit="10" pointer-events="none"/><path d="M 284.07 650.86 L 293.07 646.36 L 293.07 655.36 Z" fill="#fff" stroke="#fff" stroke-width="3" stroke-miterlimit="10" pointer-events="none"/><path d="M 361 381 C 337 381 331 401 350.2 405 C 331 413.8 352.6 433 368.2 425 C 379 441 415 441 427 425 C 451 425 451 409 436 401 C 451 385 427 369 406 377 C 391 365 367 365 361 381 Z" fill="none" stroke="#00a4bc" stroke-width="3" stroke-miterlimit="10" pointer-events="none"/><path d="M 60.71 441 L 60.71 535.14 L 138.36 535.14" fill="none" stroke="#fff" stroke-width="3" stroke-miterlimit="10" pointer-events="none"/><path d="M 147.36 535.14 L 138.36 539.64 L 138.36 530.64 Z" fill="#fff" stroke="#fff" stroke-width="3" stroke-miterlimit="10" pointer-events="none"/><path d="M 1 361 L 121 361 L 121 429 Q 91 407.4 61 429 Q 31 450.6 1 429 L 1 373 Z" fill="none" stroke="#fff" stroke-width="3" stroke-miterlimit="10" pointer-events="none"/><path d="M 221 571 L 221 598.65" fill="none" stroke="#fff" stroke-width="3" stroke-miterlimit="10" pointer-events="none"/><path d="M 221 607.65 L 216.5 598.65 L 225.5 598.65 Z" fill="#fff" stroke="#fff" stroke-width="3" stroke-miterlimit="10" pointer-events="none"/><path d="M 191 511 C 167 511 161 531 180.2 535 C 161 543.8 182.6 563 198.2 555 C 209 571 245 571 257 555 C 281 555 281 539 266 531 C 281 515 257 499 236 507 C 221 495 197 495 191 511 Z" fill="none" stroke="#00a4bc" stroke-width="3" stroke-miterlimit="10" pointer-events="none"/><ellipse cx="221" cy="651" rx="60.00000000000001" ry="40" fill="none" stroke="#fff" stroke-width="3" pointer-events="none"/></g></svg>