<svg xmlns="http://www.w3.org/2000/svg" xmlns:xlink="http://www.w3.org/1999/xlink" version="1.1" id="Layer_1" x="0px" y="0px" viewBox="0 0 613 613" style="enable-background:new 0 0 613.1 235.6;" xml:space="preserve" width="100%" height="100%"  preserveAspectRatio="xMidYMid meet"><rect id="svgEditorBackground" x="0" y="0" width="613.0999755859375" height="235.60000610351562" style="fill: none; stroke: none;"/>
<g>
	<path fill="#800020" d="M548.174452555,196.96423357699996c-1.6000000000000227,7.3,-4.2000000000000455,12.7,-7.7000000000000455,16.3l-2.5,-1.6000000000000014c2.7000000000000455,-6.9,4,-10.9,3.8999999999999773,-11.9l-0.7000000000000456,-1.0999999999999996c-0.8999999999999775,0.09999999999999966,-2.1000000000000227,2.5,-3.6000000000000227,7.300000000000001l-1.2999999999999545,0.09999999999999966c-0.10000000000002274,-0.9000000000000005,-0.29999999999995464,-1.5999999999999996,-0.7000000000000456,-2.299999999999999l-0.6000000000000227,0.09999999999999966c-11.799999999999955,32.9,-17.100000000000023,48.2,-28,73.5c-2,6.5,-3.6999999999999886,10.099999999999994,-5.199999999999989,10.799999999999997c0.10000000000002274,0.7000000000000028,0.5,1.0999999999999943,1.3000000000000114,1c0.30000000000001137,3.200000000000003,-0.5,6.299999999999997,-2.1999999999999886,9.400000000000006c-5.100000000000023,14.5,-8.399999999999977,22.5,-10.100000000000023,23.900000000000006l1.1000000000000227,6.900000000000006c0.10000000000002274,0.6999999999999887,-0.30000000000001137,1.1999999999999886,-1.1000000000000227,1.1999999999999886l-1.1999999999999886,0.09999999999999433c-0.1999999999999887,-1.9000000000000057,-0.8999999999999775,-2.8000000000000114,-2.1000000000000227,-2.6999999999999886l-0.6000000000000227,0.09999999999999433c-1.5,2.4000000000000057,-2.6999999999999886,5.199999999999989,-3.5,8.400000000000006l1.1999999999999886,-0.09999999999999433c1.6000000000000227,-1,2.3000000000000114,-2.1999999999999886,2.1999999999999886,-3.6999999999999886l2.3999999999999773,-0.1999999999999887l1.3000000000000114,0.5c-1.1000000000000227,1.6999999999999886,-1.6000000000000227,3.0999999999999943,-1.5,4.099999999999994l0.6000000000000227,1.0999999999999943l-1.5,3.5999999999999943l0.10000000000002274,0.5999999999999944c1.3999999999999775,-0.09999999999999433,2.8999999999999773,0.30000000000001137,4.5,1.3000000000000114c1.1000000000000227,-0.09999999999999433,2.3000000000000114,-0.5999999999999944,3.6000000000000227,-1.4000000000000057c1.3999999999999775,-0.09999999999999433,6.399999999999977,-0.1999999999999887,15.199999999999989,-0.1999999999999887l4.399999999999977,-1.5c5.399999999999977,-0.09999999999999433,6.2000000000000455,0.09999999999999433,10.899999999999977,-0.30000000000001137l1.8999999999999775,-0.1999999999999887l1,-0.6999999999999887l0.10000000000002274,0.5999999999999944c4.7999999999999545,-0.40000000000000574,5.2000000000000455,-0.09999999999999433,9,0.40000000000000574l0.10000000000002274,0.5999999999999944l-2.7000000000000455,0.1999999999999887l0.10000000000002274,1.0999999999999943c0.7999999999999545,-0.09999999999999433,1.5,-0.30000000000001137,2.1000000000000227,-0.8000000000000115c0.7000000000000456,-0.09999999999999433,1.1000000000000227,0.30000000000001137,1.2000000000000455,1.0999999999999943c-1.1000000000000227,0.09999999999999433,-2.2999999999999545,0.40000000000000574,-3.7000000000000455,0.8000000000000115l-1.2000000000000455,-0.40000000000000574c-1.8999999999999775,0.5,-1.5,0.5999999999999944,-2.7000000000000455,0.6999999999999887l-1.8999999999999775,-0.40000000000000574c0,0.30000000000001137,-0.10000000000002274,0.5,-0.39999999999997743,0.5999999999999944c0.10000000000002274,0.6999999999999887,0.39999999999997743,1.0999999999999943,1.1000000000000227,1l2.2999999999999545,-0.1999999999999887l-1,-0.40000000000000574c0,0.30000000000001137,0.20000000000004547,0.5,0.6000000000000227,0.5l9.899999999999977,-0.9000000000000057l3.7999999999999545,-0.8000000000000115c0,0.30000000000001137,0.20000000000004547,0.5,0.5,0.5l1.7999999999999545,-0.6999999999999887l3.3999999999999773,-0.30000000000001137c2.7000000000000455,-0.1999999999999887,2.6000000000000227,-0.40000000000000574,8.299999999999955,-1.3000000000000114c0,-0.30000000000001137,0.10000000000002274,-0.5,0.39999999999997743,-0.5v0.5c10.899999999999977,-1.8000000000000114,9.899999999999977,-1.6999999999999886,12.200000000000045,-2.5l-0.5,-1.1999999999999886c-3.1000000000000227,0.6999999999999887,-3,0.30000000000001137,-4.600000000000023,0.5l-8.299999999999955,0.40000000000000574l-0.10000000000002274,-0.5999999999999944l4.600000000000023,-0.5999999999999944l1.7000000000000455,-0.09999999999999433l0.8999999999999775,-0.6999999999999887l0.10000000000002274,0.5999999999999944c6.5,-0.5999999999999944,8.799999999999955,1.0999999999999943,39.10000000000002,-5.300000000000011c1.6000000000000227,-0.09999999999999433,1.5,-1.5,2.5,-4.300000000000011c-0.6000000000000227,0,-1.1000000000000227,-0.09999999999999433,-1.6000000000000227,-0.40000000000000574c-2.5,1,-3.7999999999999545,0.5,-8.600000000000023,1.3000000000000114c-0.39999999999997743,0,-0.7000000000000456,-0.30000000000001137,-0.8999999999999775,-1.0999999999999943v-0.5l4.600000000000023,0.1999999999999887c0.7999999999999545,-0.09999999999999433,2.6000000000000227,-0.1999999999999887,5,-1.5999999999999943c0.5,0.30000000000001137,-0.39999999999997743,0.5999999999999944,0.10000000000002274,0.5l0.7999999999999545,-0.09999999999999433c0.5,0,0.7000000000000456,-0.40000000000000574,0.7000000000000456,-1.1999999999999886l-0.5,-1.0999999999999943c-3.1000000000000227,0.30000000000001137,-4.600000000000023,0.40000000000000574,-7.100000000000023,1.8000000000000114l-0.10000000000002274,-0.5999999999999944l-3.7999999999999545,0.40000000000000574c-0.10000000000002274,-1.1999999999999886,-0.39999999999997743,-1.6999999999999886,-0.8999999999999775,-1.6999999999999886l-2,0.1999999999999887c-2.2999999999999545,0.1999999999999887,-3.3999999999999773,0.09999999999999433,-4.5,1c0,-0.40000000000000574,-0.20000000000004547,-0.5999999999999944,-0.39999999999997743,-0.5999999999999944l-2.2000000000000455,0.1999999999999887l-1.2999999999999545,0.6999999999999887c0,-0.40000000000000574,-0.20000000000004547,-0.5999999999999944,-0.39999999999997743,-0.5999999999999944l-0.7999999999999545,0.6999999999999887l-0.10000000000002274,-0.5999999999999944l-3,-0.1999999999999887l-0.7000000000000456,0.09999999999999433l0.10000000000002274,1.0999999999999943l1.6000000000000227,0.40000000000000574l1.3999999999999775,-0.09999999999999433c0.5,0.30000000000001137,1.1000000000000227,0.40000000000000574,1.7000000000000455,0.40000000000000574l1.2999999999999545,-0.5999999999999944v0.5c-7.100000000000023,1.8000000000000114,-7.100000000000023,1.4000000000000057,-12,2.3000000000000114c-0.6000000000000227,-0.40000000000000574,-1,-0.5,-1.2000000000000455,-0.5c-0.5,0.5,0.6000000000000227,0.09999999999999433,0.29999999999995464,0.09999999999999433c-0.7999999999999545,0.09999999999999433,-1.2000000000000455,-0.30000000000001137,-1.2999999999999545,-1l2.5,-0.30000000000001137c0.20000000000004547,0,0.29999999999995464,0.1999999999999887,1.7000000000000455,0.5c2,-1,2.1000000000000227,-1.4000000000000057,3.2000000000000455,-1.5l-0.10000000000002274,-1.0999999999999943c-7,1.4000000000000057,-4.2000000000000455,0.5,-13,1.1999999999999886h-0.3999999999998638l-0.10000000000002274,-1.0999999999999943c11.299999999999955,-1.4000000000000057,7.5,-0.5999999999999944,11.299999999999955,-1.6999999999999886c0,0.40000000000000574,0.20000000000004547,0.5999999999999944,0.39999999999997743,0.5999999999999944c0.39999999999997743,-0.40000000000000574,1,-0.6999999999999887,1.6000000000000227,-0.6999999999999887l0.7999999999999545,-0.09999999999999433c3.8999999999999773,-0.30000000000001137,5.2999999999999545,0.5,13.100000000000023,-1.6999999999999886v0.5l1.2999999999999545,-0.5999999999999944l1.2000000000000455,-0.09999999999999433c-0.10000000000002274,-1.1999999999999886,1.7000000000000455,-1.3000000000000114,2.2000000000000455,-1.4000000000000057l-0.10000000000002274,-1.1999999999999886c-13.700000000000045,2.8000000000000114,-17.299999999999955,2,-21.100000000000023,3.0999999999999943v-0.5c-3.6000000000000227,0.6999999999999887,-3.7000000000000455,0.30000000000001137,-4.600000000000023,0.40000000000000574c-0.29999999999995464,0,-0.7000000000000456,0.30000000000001137,-1.1000000000000227,0.6999999999999887c0,-0.40000000000000574,-0.20000000000004547,-0.5999999999999944,-0.5,-0.5999999999999944c-0.6000000000000227,0,-0.29999999999995464,0.1999999999999887,-0.7999999999999545,0.6999999999999887l0.7999999999999545,-0.6999999999999887l-11.899999999999977,1.9000000000000057c0,-0.30000000000001137,-0.20000000000004547,-0.5,-0.5,-0.5c-6,1.3000000000000114,-4.399999999999977,1.5,-12.5,2.1999999999999886c-0.39999999999997743,0,-0.8999999999999775,0.1999999999999887,-1.5,0.5999999999999944c0,-0.30000000000001137,-0.20000000000004547,-0.5,-0.6000000000000227,-0.5l-5,0.40000000000000574l-3.2999999999999545,0.8000000000000115c0,-0.30000000000001137,-0.20000000000004547,-0.5,-0.6000000000000227,-0.5c-1.8999999999999775,0.5,-3.5,0.8000000000000115,-4.7999999999999545,0.9000000000000057h-0.10000000000002274c-0.7999999999999545,0.09999999999999433,0.39999999999997743,-0.1999999999999887,-0.20000000000004547,-0.5l-1,0.5999999999999944c-1.5,0.09999999999999433,-0.7000000000000456,-0.09999999999999433,-5.7000000000000455,0c-8.800000000000011,1.0999999999999943,-7.800000000000011,1.1999999999999886,-8.800000000000011,1.3000000000000114l-3.3000000000000114,-0.1999999999999887c0,0.30000000000001137,-0.10000000000002274,0.5,-0.5,0.5999999999999944c-3.6999999999999886,-0.5,-5.600000000000023,-1.0999999999999943,-5.6999999999999895,-1.8000000000000114c0.5,-3.5,1.3000000000000114,-5.300000000000011,2.6000000000000227,-5.5l0.6000000000000227,-0.09999999999999433l-0.5999999999998523,1.1999999999999034l0.6000000000000227,-0.09999999999999433c1.1999999999999886,-0.5999999999999944,1.6999999999999886,-1.1999999999999886,1.6999999999999886,-1.8000000000000114l-0.10000000000002274,-1.1999999999999886l-1.1999999999999886,0.09999999999999433l-0.10000000000002274,-1.0999999999999943c-0.10000000000002274,-0.9000000000000057,0,-1.5999999999999943,0.30000000000001137,-2.299999999999997l2.6999999999999886,-4.299999999999997l0.10000000000002274,1.0999999999999943l1.3000000000000114,-0.09999999999999433l-0.10000000000002274,-1.0999999999999943l-0.6999999999999887,-1.0999999999999943c0.8999999999999775,-0.7999999999999973,1.6999999999999886,-1.2999999999999974,2.3000000000000114,-1.2999999999999974l-0.10000000000002274,-0.5999999999999944l-1.6999999999999886,0.09999999999999433l-0.10000000000002274,-1.7000000000000028c3.3999999999999773,-7.200000000000003,5.100000000000023,-11.400000000000006,5,-12.5l1.2000000000000455,0.5c0.7999999999999545,-0.09999999999999433,1.2000000000000455,-0.5,1.1000000000000227,-1.2999999999999974l-1.2000000000000455,0.09999999999999433v-0.5c-0.10000000000002274,-0.9000000000000057,0.10000000000002274,-1.7000000000000028,0.39999999999997743,-2.4000000000000057c1.8999999999999775,-1.9000000000000057,2.7000000000000455,-3.9000000000000057,2.5,-6c0.39999999999997743,0,0.6000000000000227,0.20000000000000284,0.6000000000000227,0.5999999999999944c1.6000000000000227,-0.9000000000000057,2.7999999999999545,-3.299999999999997,3.7000000000000455,-7.299999999999997c2.7999999999999545,-5.099999999999994,6.7999999999999545,-15.299999999999997,12,-30.5c10,-26.9,9.600000000000023,-29.8,11,-36.1l-1.2000000000000455,0.10000000000000142c0.10000000000002274,0.8000000000000007,-0.10000000000002274,1.6000000000000014,-0.5,2.3000000000000007c-0.7999999999999545,-0.30000000000000077,-1.5,-0.5,-1.8999999999999775,-0.5v-0.5c-0.20000000000004547,-2.3000000000000007,0.7999999999999545,-5.099999999999998,3,-8.4h0.5l1,3.9000000000000004l1.2000000000000455,-0.10000000000000142c0,-0.30000000000000077,0.29999999999995464,-1.8000000000000007,0.8999999999999775,-4.699999999999999c-0.10000000000002274,-0.5999999999999996,-0.5,-0.9000000000000005,-1.3999999999999775,-1l-1.1000000000000227,0.6999999999999995c-0.10000000000002274,-0.8000000000000007,0,-2.9000000000000004,0.10000000000002274,-6.4l-1.1000000000000227,0.19999999999998958ZM533.7744525549999,214.26423357699997l0.6000000000000227,-0.10000000000000142c-0.8999999999999775,1.6000000000000014,-1.6000000000000227,2.5,-2.2999999999999545,2.6000000000000014l-0.10000000000002274,-1.6999999999999995c0.5,-0.10000000000000142,1.1000000000000227,-0.30000000000000077,1.7999999999999545,-0.8000000000000007l0,0ZM528.7744525549999,226.26423357699997c1.2000000000000455,-4.8999999999999995,2.3999999999999773,-7.699999999999999,3.5,-8.399999999999999l0.10000000000002274,0.6000000000000015c-0.6000000000000227,4.600000000000001,-1.6000000000000227,6.8999999999999995,-3,7.100000000000001l0.20000000000004547,2.8999999999999986c-1.1000000000000227,1.5,-1.6000000000000227,2.700000000000003,-1.5,3.6000000000000014l-0.6000000000000227,0.09999999999999433l-0.29999999999995464,-4c0.599999999999909,-0.10000000000000142,1.1999999999999318,-0.7000000000000028,1.599999999999909,-1.8999999999999986l0,0ZM526.874452555,232.76423357699997c0.10000000000002274,0.7000000000000028,-0.39999999999997743,2.299999999999997,-1.2999999999999545,4.700000000000003l-0.6000000000000227,0.10000000000000142l-0.10000000000002274,-1.7000000000000028c0.7000000000000456,-2,1.3999999999999775,-3,2,-3.1000000000000014l0,0ZM493.97445255499997,305.46423357699996l0.6000000000000227,1.0999999999999943c0.8999999999999775,-0.09999999999999433,1.3000000000000114,-0.5,1.1999999999999886,-1.2000000000000028l-0.10000000000002274,-0.5999999999999944l-0.6000000000000227,0.09999999999999433l-1.099999999999966,0.6000000000000086ZM509.774452555,318.5642335769999v0.5c0.8999999999999775,-0.09999999999999433,1.8000000000000114,-1.7000000000000028,2.6000000000000227,-4.799999999999997l-1.1999999999999886,-0.40000000000000574c-1.0000000000000568,2.700000000000003,-1.400000000000034,4.200000000000003,-1.400000000000034,4.700000000000003l0,0ZM610.974452555,322.0642335769999v0.5l-1,1.1999999999999886l1.8999999999999775,-0.6999999999999887h0.20000000000004547l-0.10000000000002274,-1.0999999999999943h-0.39999999999997743l-0.7000000000000456,0.5999999999999944c0,-0.30000000000001137,2.1000000000000227,-0.9000000000000057,0.5,-1.1999999999999886c-0.29999999999995464,0.49999999999997174,0.5,0.5999999999999944,-0.39999999999997743,0.6999999999999887l0,0ZM614.874452555,325.66423357699995l2.7000000000000455,-0.1999999999999887c-0.10000000000002274,-0.6999999999999887,-1.7999999999999545,-0.9000000000000057,-2.3999999999999773,-0.9000000000000057h-0.39999999999997743l0.09999999999990908,1.0999999999999943ZM567.074452555,326.66423357699995l0.7999999999999545,1c0,-0.30000000000001137,0.10000000000002274,-0.5,0.39999999999997743,-0.5l0.6000000000000227,1.0999999999999943l-2.5,-0.30000000000001137c-0.19999999999993187,-0.7999999999999831,0.10000000000002274,-1.1999999999999886,0.7000000000000456,-1.2999999999999832l0,0ZM558.874452555,327.5642335769999c0.8999999999999775,-0.09999999999999433,1.5,0.5,1.5,1.3000000000000114h-2.7999999999999545v-0.5c0.29999999999995464,-0.10000000000002274,0.7999999999999545,-0.30000000000001137,1.2999999999999545,-0.8000000000000115l0,0ZM565.2744525549999,327.2642335769999l0.10000000000002274,0.5999999999999944l-2.2999999999999545,0.1999999999999887l-0.10000000000002274,-0.5999999999999944l2.2999999999999545,-0.1999999999999887ZM542.074452555,329.66423357699995c0,0.30000000000001137,0.20000000000004547,0.5,0.6000000000000227,0.5c3.7000000000000455,-0.6999999999999887,3.2999999999999545,-0.8000000000000115,5.100000000000023,-1c0.6000000000000227,-0.09999999999999433,0.8999999999999775,0.30000000000001137,1,1l-10.299999999999955,0.9000000000000057l1,0.5l-0.10000000000002274,-0.5999999999999944l-3.8999999999999773,0.30000000000001137l-0.10000000000002274,-0.5999999999999944l3.5,-0.30000000000001137l3.1999999999999322,-0.700000000000017ZM552.674452555,328.7642335769999v0.5c-0.29999999999995464,0,1,0.09999999999999433,0.39999999999997743,0.5999999999999944c-2.2000000000000455,-0.1999999999999887,-2.2999999999999545,-0.40000000000000574,-3.8999999999999773,-0.30000000000001137v-0.5l3.5,-0.29999999999998306ZM555.2744525549999,328.46423357699996v0.5l-1.8999999999999775,0.1999999999999887v-0.5l1.8999999999999775,-0.1999999999999887ZM491.274452555,338.66423357699995l0.10000000000002274,1.6999999999999886c-0.6000000000000227,0.09999999999999433,-1.1000000000000227,-0.30000000000001137,-1.3000000000000114,-1.0999999999999943v-0.5l1.1999999999999886,-0.09999999999999433ZM576.874452555,337.16423357699995l0.10000000000002274,1.0999999999999943l2,-0.1999999999999887l-0.7999999999999545,-0.5l0.10000000000002274,0.5999999999999944l2,-0.8000000000000115c13.700000000000045,-1.5,15.299999999999955,-0.9000000000000057,15.100000000000023,-2.5v-0.5c-13.800000000000068,3.1000000000000227,-15.600000000000136,2.5,-18.500000000000114,2.8000000000000114l0,0ZM598.2744525549999,335.2642335769999l2,0.40000000000000574l-0.10000000000002274,-1.0999999999999943l-2,-0.40000000000000574l0.10000000000002274,1.0999999999999943ZM539.074452555,339.16423357699995c0.6000000000000227,0.30000000000001137,-0.7000000000000456,0.5999999999999944,0.10000000000002274,0.5l7,-0.5999999999999944l0.10000000000002274,0.5999999999999944c-2,0.1999999999999887,-3.2999999999999545,0.5,-3.7000000000000455,0.9000000000000057c0,-0.40000000000000574,-0.20000000000004547,-0.5999999999999944,-0.6000000000000227,-0.5999999999999944l-3,0.30000000000001137l-0.10000000000002274,-0.5999999999999944c0.8000000000000682,-0.10000000000002274,-0.39999999999997743,-0.10000000000002274,0.20000000000004547,-0.5000000000000284l0,0ZM571.474452555,338.36423357699994l0.6000000000000227,1.0999999999999943c2.2999999999999545,-0.5,1,-0.40000000000000574,1.6000000000000227,-0.9000000000000057c0,0.40000000000000574,0.20000000000004547,0.5999999999999944,0.39999999999997743,0.5999999999999944l1.6000000000000227,-0.09999999999999433l-0.10000000000002274,-1.1999999999999886l-4.2000000000000455,-0.09999999999999433l0.10000000000002274,0.5999999999999944ZM531.874452555,342.66423357699995h-0.39999999999997743l-0.10000000000002274,-1.0999999999999943h0.39999999999997743l0.10000000000002274,1.0999999999999943ZM500.574452555,346.46423357699996l0.10000000000002274,0.5999999999999944l18.399999999999977,-1.5l-0.10000000000002274,-1.0999999999999943l-14.699999999999989,1.1999999999999886l-3.1000000000000227,-0.40000000000000574l-0.5999999999999659,1.200000000000017ZM521.074452555,345.36423357699994h0.20000000000004547l-0.10000000000002274,-1.0999999999999943h-0.20000000000004547l0.10000000000002274,1.0999999999999943Z"/>
	<path fill="#800020" d="M241.07445255499997,248.76423357699997c-13,15.5,-19.7,24,-20.2,25.7c-5.3,5.5,-7.9,8.8,-7.6,9.9c-1.4,0.9,-2,1.8,-1.8,2.8c-0.4,0.1,-0.7000000000000001,-0.1,-0.8,-0.5c-2.3,3.7,-5.6,6,-10.1,7.1l-4.7,1.1c-0.6000000000000001,0.1,-0.9,0.6000000000000001,-0.9,1.4l0.1,0.6000000000000001l1.8,-0.4l0.1,0.5l-4,1.5l-7.1,1.6l-3.7,0.2c-0.5,0.5,2.9,-0.1,1.6,0.30000000000000004l-4.6,1.1c-2.8,0.7000000000000001,-4.4,0.4,-4.6,-0.7000000000000001l-0.5,0.1c0.30000000000000004,1.1,0,1.8,-0.8,2l0.9,-0.2l-0.4,-1.7000000000000002l-8.4,2l0.9,0.4c-0.1,-0.4,-0.5,-0.5,-1.3,-0.30000000000000004l-1.1,0.9l-1.3,-0.30000000000000004c-1.2,0.7000000000000001,-2,1.1,-2.2,1.1l-1.3,-0.30000000000000004c-3.5,2,-0.9,2,-1.1,2l0.30000000000000004,1.1l2,-0.5l3.1,-0.2l-0.30000000000000004,1.3c-11.4,3,-3.1,1.3,-6.2,2l-0.6000000000000001,0.1l0.30000000000000004,1.1l1.8,-0.4l0.1,0.6000000000000001c-2.3,0.5,-3.6,1,-4,1.5l-0.1,-0.6000000000000001c-3,0.7000000000000001,-6,3,-9,6.8c0.5,2.2,-6,4.9,24.6,-2.2c2.1,-0.1,3.3,-0.1,3.6,-0.2c-0.1,-0.4,0.1,-0.6000000000000001,0.5,-0.7000000000000001c3.4,-0.4,1.8,0.2,3.9,-0.30000000000000004l6.6,-1.5l-1.4,0.8c-0.1,-0.30000000000000004,0.1,-0.5,0.4,-0.6000000000000001c0.8,0.2,1.6,0.1,2.5,-0.1l0.4,1.7000000000000002l-26.1,41.4l-5.8,7.2l-2.8,9.5l0.5,-0.1l2.8,-1.2l-0.9,3.7l0.30000000000000004,1.1l0.8,1c-0.4,0.1,-0.5,0.30000000000000004,-0.4,0.7000000000000001l0.1,0.6000000000000001l1.2,-0.30000000000000004c1.7000000000000002,-1.5,2.4,-2.9,2.2,-4.1c1.9,0.30000000000000004,3.1,0.4,3.7,0.30000000000000004l0.1,0.6000000000000001c-1.1,0.30000000000000004,-1.7000000000000002,1.2,-1.8,2.7l0.1,0.6000000000000001l0.6000000000000001,-0.1c9.5,-10.3,32.6,-45.6,51.2,-69.6c-0.6000000000000001,-2.6,9.1,-6.2,29.1,-10.8l0.6000000000000001,-0.1c0.7000000000000001,3.1,-0.8,10.7,-4.6,22.8c-2.5,7.3,-3.6,11.3,-3.5,11.9c-3.2,9.7,-4.7,14.9,-4.5,15.7l-7.1,23.2c-4.6,11.9,-8.1,24.4,-10.5,37.6c0.4,-0.1,1.1,0,1.9,0.2l1,-0.9c0.1,0.4,0.30000000000000004,0.5,0.8,0.5l-0.4,-1.7000000000000002l3.1,-0.1c0.9,-0.2,1.7000000000000002,-1.4,2.3,-3.5c-0.1,-3.1,0.5,-4.8,1.9,-5.2c1.9,-7.4,3.1,-11.2,3.5,-11.3c1.8,-7.4,3.1,-11.6,4,-12.7c2.7,-9.6,4.6,-14.6,5.9,-14.9l0.30000000000000004,1.2l-1.9,5.1c-3.4,15.1,-6.9,27.1,-10.4,35.9l1,4.4l0.6000000000000001,-0.1c8.5,-18.2,20.6,-54.2,36.5,-108c0.5,-4.7,2.7,-8.4,6.8,-11l-0.9,-0.9l-0.1,-0.5c1.8,-0.4,3.1,-1.1,3.8,-2.1c-0.1,-0.4,-1.7000000000000002,-1,-4.8,-1.8l9.4,-40.2c2.8,-12,4.7,-22.5,5.7,-31.7l-0.1,-0.6000000000000001c-1.9,-1.2,-3.8,-2.9,-5.5,-5.1c0,-1.4,0,-2.2,0,-2.4l-0.1,-0.5l-0.5,0.1C269.774452555,211.66423357699995,258.17445255499996,226.96423357699996,241.07445255499997,248.76423357699997L241.07445255499997,248.76423357699997ZM254.37445255499998,257.86423357699994c0.5,2.1,-0.30000000000000004,6,-2.3,11.7c-0.6000000000000001,7.2,-3.2,11.3,-7.7,12.4l-0.1,-0.6000000000000001l-4,1.5l-1.8,0.4c-0.9,0.2,-1.7000000000000002,0.2,-2.5,-0.1l-0.4,-1.6c-0.1,-0.6000000000000001,5.6,-8.6,17.4,-23.9L254.37445255499998,257.86423357699994ZM245.17445255499996,282.86423357699994l1.3,-0.30000000000000004l0.30000000000000004,1.1c-6.3,1.9,-9.8,2.9,-10.5,3.1c-0.4,0.1,-1,0.4,-1.7000000000000002,1c-0.1,-0.4,-0.9,-0.4,-2.5,-0.1C231.77445255499998,286.564233577,236.17445255499996,284.96423357699996,245.17445255499996,282.86423357699994L245.17445255499996,282.86423357699994ZM183.07445255499997,299.66423357699995l1.4,-0.30000000000000004l-0.30000000000000004,-1.2l-1.4,0.30000000000000004L183.07445255499997,299.66423357699995ZM201.37445255499998,294.86423357699994l0.30000000000000004,1.1l-3,0.2l-0.1,-0.6000000000000001L201.37445255499998,294.86423357699994ZM166.37445255499998,306.36423357699994l0.1,0.6000000000000001l-1.9,0.4l-0.1,-0.6000000000000001L166.37445255499998,306.36423357699994ZM162.87445255499998,313.66423357699995l0.1,0.5l-2.3,0.5l-0.30000000000000004,-1.1L162.87445255499998,313.66423357699995ZM168.37445255499998,312.46423357699996l0.1,0.5l-4.2,1l-0.1,-0.5L168.37445255499998,312.46423357699996ZM175.67445255499996,311.26423357699997l0.1,0.6000000000000001l-11,2.5l-0.30000000000000004,-1.1C170.87445255499998,312.16423357699995,170.17445255499996,312.564233577,175.67445255499996,311.26423357699997L175.67445255499996,311.26423357699997ZM230.77445255499998,298.46423357699996l0.9,1c-1.3,0.30000000000000004,-2.3,0.7000000000000001,-2.8,1.2l-1.3,-0.2c-2,0.8,-3.8,1.4,-5.2,1.7000000000000002l-1.2,0.30000000000000004c-0.7000000000000001,0.2,-1.2,-0.1,-1.5,-0.8l8.3,-1.9L230.77445255499998,298.46423357699996ZM236.67445255499996,297.16423357699995l5.9,-1.4l0.1,0.6000000000000001c-3.2,0.7000000000000001,-5.7,1.5,-7.5,2.4l-0.1,-0.6000000000000001C235.57445255499997,298.064233577,236.07445255499997,297.66423357699995,236.67445255499996,297.16423357699995L236.67445255499996,297.16423357699995ZM174.67445255499996,313.96423357699996l2.8,-0.6000000000000001l0.30000000000000004,1.1c-1.2,0.30000000000000004,-0.30000000000000004,0.30000000000000004,-1.8,1c-2.9,0.30000000000000004,-2.3,-0.1,-6.9,1l-0.1,-0.6000000000000001L174.67445255499996,313.96423357699996ZM182.27445255499998,312.66423357699995c0.8,-0.2,1.3,0.1,1.4,0.9l-1.7000000000000002,0.4c-0.7000000000000001,0.2,-1.2,-0.1,-1.5,-0.9L182.27445255499998,312.66423357699995ZM150.97445255499997,375.86423357699994l0.1,0.6000000000000001c0.8,-0.2,1.1,-0.6000000000000001,0.9,-1.4l-0.1,-0.6000000000000001C151.17445255499996,374.66423357699995,150.87445255499998,375.0642335769999,150.97445255499997,375.86423357699994L150.97445255499997,375.86423357699994ZM153.37445255499998,385.86423357699994c0.2,0.7000000000000001,0.6000000000000001,1,1.4,0.8c0.8,-0.2,1.1,-0.6000000000000001,0.9,-1.4l-0.1,-0.6000000000000001l-1.2,0.30000000000000004L153.37445255499998,385.86423357699994ZM217.17445255499996,403.0642335769999c0.8,-0.2,1.2,0.1,1.4,0.8l0.1,0.6000000000000001l-2.3,0.5c0.2,-0.8,0.2,-1.4,0.1,-1.8L217.17445255499996,403.0642335769999Z"/>
	<path fill="#800020" d="M309.774452555,218.06423357699992c-5.2,3.7,-11.1,7.5,-17.7,11.2l0.1,1.1c0.4,0,1,-0.30000000000000004,1.8,-0.8c0.8,-0.1,1.2,0.30000000000000004,1.3,1l1.1,-0.6000000000000001h0.5v0.5c0.1,0.6000000000000001,-4.1,3.8,-12.3,9.6l0.6000000000000001,1.2h-0.5l-1.3,-0.5c0,0.4,-0.5,0.7000000000000001,-1.7000000000000002,0.8v0.5l1.3,1.6c-0.4,0,-1.1,-0.1,-1.9,-0.5c-2.7,0.2,-5.3,2.2,-7.9,5.8l0.6000000000000001,1.1c2.3,-2.1,3.6,-3.2,4,-3.2l0.1,1.7000000000000002c-0.4,0,-1,0.30000000000000004,-1.8,0.8l1.5,2.1c2.7,-3,5.7,-5.5,8.9,-7.6c1.6,0.5,2.5,1,2.5,1.5l1.2,-0.1c9,-6.6,17.8,-11.3,26.5,-14.2l0.1,1.1c-1.6,2.4,-2.7,3.6,-3.3,3.7c0.1,0.8,0.30000000000000004,1.5,0.7000000000000001,2.2c0.1,1.5,-3.8,11.5,-11.8,30c-18.3,42.9,-33.6,74.7,-46,95.3c0,0.4,0.30000000000000004,1,0.8,1.7000000000000002c3.1,-0.7000000000000001,5,-1.5,5.8,-2.2h0.5l0.1,1.1l1.3,-0.1l1.1,-0.6000000000000001c0,0.30000000000000004,0.4,0.5,1.2,0.4l0.1,1.2c0.1,1.1,-0.6000000000000001,2.8,-1.9,5.2c-1.3,1.4,-2.7,4.4,-4.1,8.9l0.1,0.6000000000000001l1.2,-0.1c5,-5.6,8.7,-11,11.3,-16.4c14.5,-4.3,25.5,-8.4,33.2,-12.5c7.8,-0.7000000000000001,13.6,-2.7,17.6,-6l-0.1,-0.6000000000000001l-3,0.9l-0.6000000000000001,0.1l-0.1,-0.6000000000000001c5.7,-0.8,9.6,-2.1,11.7,-3.8c11,-8.5,19.3,-14.5,25,-18c17.4,-12.8,25.6,-25,24.6,-36.8c-0.1,-1.2,-3.9,-6,-11.5,-14.4c-0.1,-1.6,2.5,-3.9,7.8,-6.9l15.2,-13.2c3.4,-4.3,5.4,-11.3,6,-21l-0.2,-2.2c-0.6000000000000001,-6.7,-5.5,-12.1,-14.7,-16.3c-5.5,-3.7,-15.3,-5.7,-29.4,-6.1C343.97445255499997,206.46423357699996,328.67445255499996,210.66423357699995,309.774452555,218.06423357699992L309.774452555,218.06423357699992ZM391.17445255499996,218.86423357699994l-0.6000000000000001,1.2l-16.8,-7.1C385.074452555,213.46423357699996,390.87445255499995,215.36423357699994,391.17445255499996,218.86423357699994L391.17445255499996,218.86423357699994ZM322.97445255499997,265.66423357699995c1.2,-6.3,2.5,-9.8,3.9,-10.6l12.7,-28.4c-0.1,-1.7000000000000002,2.5,-3.1,8,-4.1l1.8,-0.2l0.1,1.7000000000000002c5.4,-0.9,8.7,-1.4,10.1,-1.5c10,-0.9,15.2,1.2,15.6,6l1.2,-0.1l-0.2,-2.7l1.2,-0.1c2.9,1.6,4.4,3.5,4.6,5.8c0.1,1.6,-0.7000000000000001,3.6,-2.4,6c-0.8,0.1,-1.2,-0.5,-1.3,-1.6l-1.2,0.1l-0.4,3.4c-5.1,7.7,-8.7,11.6,-11,11.8c-2,2.8,-3.3,4.2,-3.9,4.2c-1.6,1.9,-5.9,5.2,-13,9.7c-2.4,0.2,-11.1,3.6,-26.2,10.2c-0.7000000000000001,-0.30000000000000004,-1.6,-0.4,-2.4,-0.30000000000000004l-0.1,-1.1C319.87445255499995,271.76423357699997,320.87445255499995,269.064233577,322.97445255499997,265.66423357699995L322.97445255499997,265.66423357699995ZM392.774452555,230.66423357699995l0.1,1.2c-0.6000000000000001,0,-1.7000000000000002,-1.8,-3.5,-5.4l-0.1,-1.1C390.37445255499995,225.26423357699997,391.574452555,227.06423357699992,392.774452555,230.66423357699995L392.774452555,230.66423357699995ZM281.97445255499997,244.26423357699997l0.1,0.6000000000000001c-0.4,0,-1,0.30000000000000004,-1.8,0.7000000000000001h-0.5l-0.1,-1.1L281.97445255499997,244.26423357699997ZM318.67445255499996,243.36423357699994l0.1,1.7000000000000002c-0.6000000000000001,0,-1.3,0.9,-2.2,2.4l-0.1,-1.1c1,-1.3,1.5,-2.3,1.5,-3H318.67445255499996ZM312.97445255499997,255.16423357699995l0.2,2.2l-0.6000000000000001,0.1l-0.2,-2.2L312.97445255499997,255.16423357699995ZM311.574452555,259.26423357699997c-0.1,1.9,-0.6000000000000001,2.9,-1.5,3l-0.6000000000000001,0.1c0.7000000000000001,-1.3,1,-2.3,0.9,-3L311.574452555,259.26423357699997ZM308.97445255499997,265.16423357699995l0.1,0.6000000000000001l-1,1.8l-1.2,0.1l-0.1,-0.6000000000000001c1.2,-0.1,1.8,-0.7000000000000001,1.7000000000000002,-1.9H308.97445255499997ZM306.47445255499997,270.46423357699996l-0.4,2.9h-0.5l-0.2,-2.9H306.47445255499997ZM368.074452555,272.564233577l2.5,1.5c0.1,0.7000000000000001,-0.30000000000000004,1.2,-1.1,1.2c-1.1,-0.7000000000000001,-1.9,-1,-2.5,-0.9v-1.7000000000000002L368.074452555,272.564233577ZM319.87445255499995,278.96423357699996l0.1,1.1l-2.4,0.2L317.47445255499997,279.16423357699995L319.87445255499995,278.96423357699996ZM358.774452555,283.064233577c1.7000000000000002,0.8,2.5,1.5,2.6,2.1v0.5c-1.6,0.1,-3.1,-0.7000000000000001,-4.5,-2.5L358.774452555,283.064233577ZM308.67445255499996,295.36423357699994c6.8,-0.6000000000000001,17.5,-3.8,32.2,-9.6l3.7,-0.30000000000000004c7.4,-0.6000000000000001,12.9,0.8,16.6,4.3l0.2,2.2c-2.7,7.8,-5.7,12.4,-9,13.8l-15.1,12.2c-11.3,7.4,-17.4,11.1,-18.4,11.2c-18,9.9,-29.2,15,-33.6,15.4l-0.6000000000000001,0.1C285.074452555,342.5642335769999,293.074452555,326.16423357699995,308.67445255499996,295.36423357699994L308.67445255499996,295.36423357699994ZM324.97445255499997,288.86423357699994l0.1,0.6000000000000001l-2.4,0.2l-0.1,-0.6000000000000001L324.97445255499997,288.86423357699994ZM379.47445255499997,286.36423357699994l0.4,4.6c-0.6000000000000001,1.1,-1.1,1.7000000000000002,-1.7000000000000002,1.8l-0.7000000000000001,-7.8C378.774452555,285.36423357699994,379.47445255499997,285.86423357699994,379.47445255499997,286.36423357699994L379.47445255499997,286.36423357699994ZM287.17445255499996,325.5642335769999c-0.8,3.8,-1.6,5.8,-2.4,5.8v-0.5C284.47445255499997,329.0642335769999,285.274452555,327.2642335769999,287.17445255499996,325.5642335769999L287.17445255499996,325.5642335769999ZM302.274452555,346.96423357699996c4.4,-0.8,16.5,-7.1,36.3,-19l0.1,1.1c0,0.5,-1.6,2,-5.1,4.4c-10,5,-16,8.3,-17.8,10c-10.9,3.8,-16.3,6.2,-16.2,7.1c-9.7,3.8,-16,6.6,-19.1,8.4c-0.7000000000000001,0.1,-1.8,-0.2,-3.1,-0.9c-0.2,-2,0.7000000000000001,-3.5,2.6,-4.7c1.7000000000000002,-0.1,3.3,0.1,4.8,0.7000000000000001c1.8,-0.9,4.9,-1.9,9.4,-3.1l-0.1,-1.1l-3.7,0.30000000000000004c0.4,-0.7000000000000001,3.9,-2.3,10.4,-4.9l1.8,-0.2v0.5c-3.1,0.30000000000000004,-4.8,1.2,-5.2,2.8c0.1,0.7000000000000001,0.5,1.1,1.3,1C301.17445255499996,348.16423357699995,302.274452555,347.2642335769999,302.274452555,346.96423357699996L302.274452555,346.96423357699996ZM283.574452555,333.2642335769999v0.5c0.1,0.8,-0.30000000000000004,1.3,-1.1,1.3l-0.1,-0.6000000000000001C282.37445255499995,333.96423357699996,282.774452555,333.46423357699996,283.574452555,333.2642335769999L283.574452555,333.2642335769999ZM311.97445255499997,341.0642335769999c-1.4,0.1,-4.1,1.3,-8.1,3.5l-0.6000000000000001,0.1l-0.1,-1.1c2.9,-0.30000000000000004,5.5,-1.4,7.5,-3.4C311.47445255499997,340.0642335769999,311.87445255499995,340.36423357699994,311.97445255499997,341.0642335769999L311.97445255499997,341.0642335769999ZM282.574452555,349.2642335769999l1.8,-0.2l0.1,0.6000000000000001c-0.4,0,-1,0.30000000000000004,-1.8,0.7000000000000001l-1.2,0.1C281.37445255499995,349.86423357699994,281.774452555,349.46423357699996,282.574452555,349.2642335769999L282.574452555,349.2642335769999ZM270.47445255499997,355.96423357699996l1.2,0.5c-0.4,3.5,-1.5,5.3,-3.1,5.4c-1.4,-0.6000000000000001,-2.6,-0.9,-3.7,-0.8l-0.1,-1.7000000000000002c-0.1,-0.6000000000000001,0.30000000000000004,-1,1.1,-1.2c0.8,-0.1,1.2,0.5,1.3,1.6C269.17445255499996,357.2642335769999,270.274452555,355.96423357699996,270.47445255499997,355.96423357699996L270.47445255499997,355.96423357699996Z"/>
	<path fill="#800020" d="M74.37445255499998,213.06423357699992c-6.8,5,-14.6,9.9,-23.3,14.7l0.1,1.5c0.6000000000000001,0,1.3,-0.4,2.3,-0.9c1,-0.1,1.6,0.30000000000000004,1.6,1.3l1.6,-0.9l0.8,-0.1l0.1,0.7000000000000001c0.1,0.7000000000000001,-5.4,5,-16.3,12.7l0.9,1.4l-0.8,0.1l-1.7000000000000002,-0.6000000000000001c0,0.5,-0.7000000000000001,0.8,-2.3,0.9l0.1,0.8l1.8,2c-0.6000000000000001,0,-1.4,-0.1,-2.4,-0.5c-3.5,0.30000000000000004,-7,2.9,-10.4,7.7l0.9,1.4c3,-2.7,4.7,-4.1,5.2,-4.1l0.2,2.2c-0.5,0,-1.3,0.4,-2.3,0.9l1.9,2.8c3.6,-3.9,7.5,-7.2,11.9,-9.9c2.2,0.6000000000000001,3.3,1.2,3.3,2l1.6,-0.1C60.874452554999976,240.36423357699994,72.47445255499997,234.16423357699995,83.97445255499997,230.26423357699997l0.1,1.5c-2.1,3.2,-3.6,4.8,-4.4,4.9c0.1,1.1,0.5,2,1.1,2.9c0.2,2,-5,15.1,-15.6,39.5C40.97445255499997,335.66423357699995,20.774452554999968,377.46423357699996,4.474452554999966,404.66423357699995c0,0.5,0.4,1.3,0.9,2.2c4,-1,6.6,-1.9,7.7,-2.9l0.9,-0.1l0.1,1.5l1.5,-0.1l1.6,-0.9c0,0.5,0.6000000000000001,0.7000000000000001,1.6,0.6000000000000001l0.1,1.5c0.1,1.5,-0.7000000000000001,3.8,-2.6,6.9c-1.7000000000000002,1.9,-3.4,5.8,-5.3,11.7l0.1,0.7000000000000001l1.5,-0.1C19.074452554999972,418.36423357699994,24.074452554999972,411.16423357699995,27.47445255499997,404.16423357699995c19.1,-5.6,33.6,-11.1,43.7,-16.5c10.1,-0.9,17.9,-3.5,23.1,-7.9l-0.1,-0.8l-3.8,1.1L89.47445255499997,380.16423357699995l-0.1,-0.8c7.4,-1.1,12.6,-2.8,15.4,-5c14.5,-11.2,25.4,-19.1,32.8,-23.8c22.9,-16.8,33.7,-33,32.4,-48.4c-0.1,-1.6,-5.2,-7.9,-15.1,-18.9c-0.2,-2.1,3.3,-5.1,10.3,-9.1l19.9,-17.5c4.4,-5.7,7.1,-14.9,8,-27.6l-0.30000000000000004,-3c-0.8,-8.9,-7.2,-16.1,-19.4,-21.6c-7.2,-4.9,-20.1,-7.5,-38.7,-7.8C119.37445255499998,198.06423357699992,99.17445255499997,203.46423357699996,74.37445255499998,213.06423357699992L74.37445255499998,213.06423357699992ZM181.57445255499997,214.36423357699994l-0.6000000000000001,1.5l-22.2,-9.3C173.57445255499997,207.16423357699995,181.17445255499996,209.76423357699997,181.57445255499997,214.36423357699994L181.57445255499997,214.36423357699994ZM91.77445255499997,275.96423357699996c1.5,-8.2,3.2,-12.9,5.1,-14L113.47445255499997,224.66423357699995c-0.2,-2.3,3.3,-4.1,10.6,-5.3L126.47445255499997,219.16423357699995l0.2,2.1c7.2,-1.1,11.6,-1.7000000000000002,13.3,-1.9c13.2,-1.1,20,1.5,20.6,8l1.5,-0.1l-0.30000000000000004,-3.8l1.6,-0.1c3.9,2.1,6,4.7,6.2,7.8c0.2,2.1,-0.9,4.7,-3.4,7.8c-1,0.1,-1.6,-0.6000000000000001,-1.7000000000000002,-2.1l-1.6,0.1l-0.4,4.5c-6.7,10,-11.5,15.1,-14.5,15.4c-2.7,3.7,-4.4,5.6,-5.1,5.7c-2.1,2.5,-7.8,6.8,-17.2,12.8c-3.1,0.30000000000000004,-14.6,4.7,-34.5,13.4c-1,-0.5,-2,-0.6000000000000001,-3.2,-0.5l-0.1,-1.4C87.67445255499997,283.96423357699996,88.87445255499998,280.36423357699994,91.77445255499997,275.96423357699996L91.77445255499997,275.96423357699996ZM183.67445255499996,229.96423357699996l0.1,1.4c-0.8,0.1,-2.3,-2.3,-4.5,-7.1l-0.1,-1.4C180.57445255499997,222.66423357699995,182.07445255499997,225.06423357699992,183.67445255499996,229.96423357699996L183.67445255499996,229.96423357699996ZM37.674452554999974,247.76423357699997l0.1,0.7000000000000001c-0.5,0,-1.3,0.4,-2.3,0.9l-0.8,0.1l-0.1,-1.4L37.674452554999974,247.76423357699997ZM85.97445255499997,246.56423357699992l0.2,2.2c-0.7000000000000001,0.1,-1.7000000000000002,1.1,-2.9,3.2l-0.1,-1.5c1.4,-1.7000000000000002,2.1,-3,2.1,-3.9L85.97445255499997,246.56423357699992ZM78.57445255499997,262.16423357699995l0.30000000000000004,3l-0.8,0.1l-0.30000000000000004,-3L78.57445255499997,262.16423357699995ZM76.67445255499997,267.564233577c-0.2,2.5,-0.8,3.8,-2.1,3.9l-0.8,0.1c0.9,-1.7000000000000002,1.4,-2.9,1.3,-3.8L76.67445255499997,267.564233577ZM73.37445255499998,275.36423357699994l0.1,0.7000000000000001l-1.4,2.4l-1.5,0.1L70.47445255499997,277.86423357699994c1.5,-0.1,2.2,-0.9,2.1,-2.4L73.37445255499998,275.36423357699994ZM69.97445255499997,282.36423357699994l-0.4,3.7L68.77445255499997,286.16423357699995L68.47445255499997,282.46423357699996L69.97445255499997,282.36423357699994ZM151.07445255499997,285.064233577l3.3,2c0.1,1,-0.4,1.6,-1.4,1.7000000000000002c-1.4,-0.9,-2.5,-1.3,-3.3,-1.3l-0.2,-2.2L151.07445255499997,285.064233577ZM87.57445255499997,293.564233577l0.1,1.4l-3.1,0.30000000000000004l-0.1,-1.4L87.57445255499997,293.564233577ZM138.77445255499998,298.76423357699997c2.2,1,3.3,2,3.4,2.8l0.1,0.7000000000000001c-2.1,0.2,-4,-0.9,-5.8,-3.3L138.77445255499998,298.76423357699997ZM72.77445255499997,314.96423357699996c9,-0.8,23.2,-5,42.5,-12.6l4.7,-0.4c9.8,-0.8,17.1,1,21.9,5.6l0.30000000000000004,3c-3.6,10.4,-7.6,16.4,-11.9,18.3l-20,15.9c-14.9,9.8,-22.9,14.7,-24.1,14.8c-23.7,13.1,-38.5,19.8,-44.2,20.3l-0.9,0.1C41.87445255499997,377.16423357699995,52.37445255499997,355.5642335769999,72.77445255499997,314.96423357699996L72.77445255499997,314.96423357699996ZM94.37445255499998,306.46423357699996L94.47445255499997,307.16423357699995l-3.2,0.30000000000000004l-0.1,-0.7000000000000001L94.37445255499998,306.46423357699996ZM166.17445255499996,303.26423357699997l0.5,5.9c-0.7000000000000001,1.6,-1.4,2.4,-2.2,2.4l-0.9,-10.4C165.27445255499998,301.86423357699994,166.07445255499997,302.564233577,166.17445255499996,303.26423357699997L166.17445255499996,303.26423357699997ZM44.47445255499997,354.86423357699994c-1,5.1,-2.1,7.7,-3.2,7.8l-0.1,-0.7000000000000001C40.97445255499997,359.36423357699994,42.07445255499997,357.0642335769999,44.47445255499997,354.86423357699994L44.47445255499997,354.86423357699994ZM64.47445255499997,383.0642335769999c5.8,-1.1,21.7,-9.5,47.8,-25l0.1,1.4c0.1,0.6000000000000001,-2.2,2.5,-6.7,5.8c-13.3,6.5,-21.1,11,-23.4,13.3c-14.4,5,-21.5,8.1,-21.4,9.3c-12.8,5.1,-21.2,8.8,-25.2,11.1c-0.9,0.1,-2.3,-0.30000000000000004,-4.1,-1.1c-0.2,-2.6,0.9,-4.7,3.5,-6.4c2.2,-0.2,4.4,0.1,6.4,1c2.4,-1.2,6.5,-2.6,12.4,-4l-0.1,-1.5l-4.7,0.4c0.6000000000000001,-0.8,5.1,-2.9,13.7,-6.4l2.4,-0.2l0.1,0.7000000000000001c-4,0.30000000000000004,-6.3,1.6,-6.8,3.7c0.1,0.9,0.6000000000000001,1.4,1.6,1.3C62.97445255499997,384.46423357699996,64.47445255499997,383.36423357699994,64.47445255499997,383.0642335769999L64.47445255499997,383.0642335769999ZM39.87445255499997,364.96423357699996l0.1,0.7000000000000001c0.1,1,-0.4,1.6,-1.4,1.7000000000000002l-0.1,-0.7000000000000001C38.37445255499997,365.7642335769999,38.87445255499997,365.16423357699995,39.87445255499997,364.96423357699996L39.87445255499997,364.96423357699996ZM77.27445255499997,375.16423357699995c-1.9,0.2,-5.4,1.7000000000000002,-10.7,4.7l-0.8,0.1l-0.1,-1.5c3.8,-0.30000000000000004,7.1,-1.8,9.8,-4.5C76.57445255499997,373.7642335769999,77.17445255499997,374.2642335769999,77.27445255499997,375.16423357699995L77.27445255499997,375.16423357699995ZM38.47445255499997,385.96423357699996l2.4,-0.2l0.1,0.8c-0.6000000000000001,0,-1.3,0.4,-2.3,0.9l-1.5,0.1C37.07445255499997,386.86423357699994,37.47445255499997,386.2642335769999,38.47445255499997,385.96423357699996L38.47445255499997,385.96423357699996ZM22.574452554999972,394.86423357699994l1.7000000000000002,0.7000000000000001c-0.6000000000000001,4.5,-1.9,6.8,-4.2,7c-1.8,-0.8,-3.4,-1.1,-4.9,-1l-0.2,-2.2c-0.1,-0.9,0.4,-1.4,1.5,-1.7000000000000002c1,-0.1,1.6,0.6000000000000001,1.7000000000000002,2.1C20.87445255499997,396.46423357699996,22.37445255499997,394.86423357699994,22.574452554999972,394.86423357699994L22.574452554999972,394.86423357699994Z"/>
	<path fill="#800020" d="M466.17445255499996,198.36423357699994l-1.3,-0.5L443.574452555,201.16423357699995c-0.8,-0.4,-1.8,-0.6000000000000001,-2.9,-0.5c-1.2,0.1,-3,0.5,-5.7,1.2L424.67445255499996,206.16423357699995l0.8,1.3c0.5,0,1.2,-0.30000000000000004,2.1,-0.8l3.6,0.30000000000000004l-0.5,3.4c-3.3,1.5,-5.3,3.7,-5.8,6.6c-5,2.2,-7.5,3.8,-7.5,4.8l0.1,0.6000000000000001l0.8,-0.1l1.4,-0.7000000000000001l1.6,1.9l0.2,2.6c0.1,0.8,-8.4,18.7,-25.4,53.6c-14.7,33.6,-22.4,52,-23.2,55.3c-5,1.4,-8,3.5,-8.8,6.2c0.1,0.9,1.6,1.4,4.5,1.7000000000000002l0.1,1.3l-1.3,2.2l0.2,2.6c0.1,1.4,3.8,2.4,11,3.2c0,-0.5,0.2,-0.7000000000000001,0.7000000000000001,-0.8c0.1,1.6,-0.30000000000000004,4.8,-1.4,9.6l0.8,-0.1c3,-4.1,4.4,-6.9,4.3,-8.5l0.6000000000000001,-0.1c0.7000000000000001,-0.1,1.5,0.8,2.4,2.6c-0.9,0.4,-4.1,7.6,-9.5,21.7l0.8,1.3l0.8,-0.1c6.7,-16.9,10.9,-26.3,12.6,-28.1c8.8,-0.8,23.9,-2.3,45.5,-4.6l1.3,-0.8c0,0.5,0.30000000000000004,0.7000000000000001,0.8,0.6000000000000001l1.4,-0.1l1.3,-0.8c0,0.5,0.30000000000000004,0.7000000000000001,0.8,0.6000000000000001l16.3,-1.4c4.3,-0.4,6.4,-1.7000000000000002,6.2,-3.9c-0.1,-0.6000000000000001,2.5,-1.3,7.7,-2c0.5,0,1.2,0.1,2.2,0.4c0,-0.4,2.5,-0.8,7.7,-1.3c0.1,-2.7,1,-4.2,2.6,-4.3l-0.1,-1.3c-1.4,0.1,-3.1,0.5,-5,1.1c-3.4,-0.2,-5.6,-0.4,-6.5,-0.8c-0.9,0.5,-1.6,0.8,-2.1,0.8l-11.4,0.4l-1.4,0.7000000000000001c0,-0.4,-0.30000000000000004,-0.6000000000000001,-0.8,-0.5l-0.6000000000000001,0.1l-1.5,0.7000000000000001c0,-0.4,-1.2,-0.7000000000000001,-3.6,-1l-1.4,0.8l-2.8,0.2l-0.1,-0.7000000000000001c14.6,-1.6,21.9,-3.6,21.7,-6c0.9,-0.1,1.4,0.4,1.5,1.3l4.3,-1.1l-0.1,-1.3l-35,1c0,0.5,-0.2,0.7000000000000001,-0.7000000000000001,0.8l-4.3,-0.4c-1.1,0.1,-2,0.4,-2.7,1l-1.6,-0.6000000000000001c-4.4,0.4,-7.7,0.9,-9.9,1.6c-3,-0.2,-6.3,-0.2,-10,0.1l-7.9,0.7000000000000001l-3.6,-0.4c-0.2,-2.3,4.3,-13.7,13.6,-34.2c2.7,-6.9,5.2,-11.2,7.5,-12.8c0.5,0,1.2,0.1,2.2,0.5l5.6,-1.9l2.9,0.5c4.8,-0.4,10.4,-1.8,16.8,-4.1c1.6,-0.1,2.8,0,3.6,0.30000000000000004l4.3,-1l12.7,-1.1c5.4,-0.5,11.3,-1.7000000000000002,17.6,-3.6l-0.1,-1.3c-2.4,0.2,-3.6,-0.2,-3.7,-1.1c-0.2,-1.8,-1.9,-2.5,-5.2,-2.2l-0.1,-1.3l3.5,-1l9.2,-0.8l-0.1,-1.3c-0.4,0,-2.2,0,-5.7,-0.1l-0.1,-1.4l3.6,-0.30000000000000004c0.9,-0.1,1.4,-0.6000000000000001,1.3,-1.4c-4.8,0.1,-7.2,-0.1,-7.2,-0.7000000000000001c-33.3,1.6,-49.9,1.9,-50,0.9c-0.5,0,-1.2,0.30000000000000004,-2.1,0.9l-0.9,-1.4c8.8,-18.7,14,-28.2,15.5,-28.3c0.1,0.7000000000000001,-0.30000000000000004,1.9,-1.1,3.5l0.1,0.6000000000000001l1.4,-0.1c3.5,-8.4,6.4,-12.7,8.9,-12.9c10.4,-0.9,-1.5,-1.6,20.9,-5.1c0.9,0.4,1.6,0.6000000000000001,2,0.5c8.8,-1.8,21,-3.6,36.7,-5.5l-0.1,-1.3l-8.4,0.8l-0.1,-1.3c1,-0.1,1.8,-0.4,2.5,-1l0.1,0.7000000000000001c0.5,0,1.1,-0.30000000000000004,1.9,-0.9c1.4,-0.1,2.5,0,3.3,0.4c2.9,-0.8,5.2,-1.2,7,-1.4l5.2,-0.5c1.3,-0.8,1.9,-1.5,1.8,-2.2v-0.6000000000000001c-1.3,0.1,-2.8,0,-4.6,-0.30000000000000004c-0.1,-0.7000000000000001,0.30000000000000004,-1.2,1.2,-1.4l9.7,-0.9l4.5,-1.1c0,0.5,0.30000000000000004,0.7000000000000001,0.6000000000000001,0.7000000000000001c0.5,0,1.1,-0.30000000000000004,1.9,-0.9c2.3,0.30000000000000004,3.7,0.4,4,0.30000000000000004c1.8,-1.7000000000000002,3.9,-3.1,6.2,-4c-1,-1,-1.5,-1.8,-1.6,-2.5l-6.5,0.6000000000000001c0,-0.5,-0.30000000000000004,-1.1,-0.7000000000000001,-2c0,-0.6000000000000001,1.4,-1.2,4.4,-1.8l1.3,0.5l1.2,-0.7000000000000001c0,0.4,0.30000000000000004,0.6000000000000001,0.7000000000000001,0.5l1.2,-0.7000000000000001c0,0.4,0.30000000000000004,0.6000000000000001,0.7000000000000001,0.5l0.6000000000000001,-0.1L550.374452555,190.16423357699995c-0.9,0.1,-3.3,0.1,-7.1,0l-1.2,0.8l-0.1,-0.7000000000000001C511.47445255499997,192.76423357699997,494.17445255499996,194.16423357699995,490.074452555,194.56423357699992c-0.5,0,-2.7,0,-6.4,-0.1c0,0.5,-0.4,0.8,-1.3,0.8l-1.3,-0.6000000000000001l-4.5,1.1c-1,0.1,-2.8,0,-5.3,-0.2c-0.7000000000000001,0.5,-1.5,0.9,-2.5,1s24.2,-1.4,23.4,-1.8l-3.9,1.1l-0.6000000000000001,0.1c-1.6,0.1,-3.6,0.1,-6,-0.2c-0.7000000000000001,0.5,-1.7000000000000002,0.9,-3.2,1c-1,0.1,-1.9,-0.1,-2.6,-0.5C474.774452555,196.56423357699992,471.574452555,197.36423357699994,466.17445255499996,198.36423357699994L466.17445255499996,198.36423357699994ZM467.774452555,202.36423357699994c0,0.5,0.5,0.7000000000000001,1.3,0.6000000000000001l0.1,1.3l-1.3,0.1c-1,0.1,-1.9,-0.1,-2.6,-0.5c-0.7000000000000001,0.6000000000000001,-1.6,0.9,-2.5,1h0.4l-3.6,-0.4l-0.1,-0.6000000000000001C463.87445255499995,203.56423357699992,465.274452555,203.06423357699992,467.774452555,202.36423357699994L467.774452555,202.36423357699994ZM471.074452555,202.06423357699992l0.7000000000000001,-0.1l0.1,1.3l-2,0.2C469.87445255499995,202.76423357699997,470.17445255499996,202.26423357699997,471.074452555,202.06423357699992L471.074452555,202.06423357699992ZM478.774452555,201.26423357699997l0.1,0.7000000000000001c-1.5,0.1,-3.4,0.5,-5.7,1.2l-0.7000000000000001,0.1l0.6000000000000001,-1.4L478.774452555,201.26423357699997ZM421.97445255499997,207.76423357699997l2.2,-0.2l-0.1,-1.3l-2.2,0.2L421.97445255499997,207.76423357699997ZM437.67445255499996,206.36423357699994l0.8,-0.1l1.5,0.6000000000000001c0.1,0.9,-0.4,1.4,-1.3,1.4l-2.2,0.2l-0.1,-0.7000000000000001C436.274452555,207.06423357699992,436.774452555,206.66423357699995,437.67445255499996,206.36423357699994L437.67445255499996,206.36423357699994ZM487.97445255499997,209.26423357699997v0.6000000000000001l-4.5,0.4v-0.6000000000000001L487.97445255499997,209.26423357699997ZM475.074452555,211.16423357699995l0.1,0.7000000000000001l-2.6,0.2l-0.1,-0.7000000000000001L475.074452555,211.16423357699995ZM487.47445255499997,212.16423357699995l9,-1.5l4.6,0.2l0.1,0.7000000000000001c-2.2,0.2,-4.1,0.6000000000000001,-5.7,1.2c0,-0.5,-0.9,-0.9,-2.7,-1.1l-7.1,2c-1.4,-0.8,-2.1,-1.4,-2.1,-1.8L487.47445255499997,212.16423357699995ZM478.574452555,214.16423357699995c0.9,-0.1,1.3,0.30000000000000004,1.4,1.2l-3.8,0.4l-0.1,-1.3L478.574452555,214.16423357699995ZM470.67445255499996,213.76423357699997l0.1,0.7000000000000001l23.4,-1.1l-0.1,-0.7000000000000001L470.67445255499996,213.76423357699997ZM472.074452555,215.56423357699992V216.16423357699995l-5.1,0.5v-0.6000000000000001L472.074452555,215.56423357699992ZM438.574452555,242.06423357699992l0.1,0.7000000000000001l1.5,-0.1c0,-0.5,0.1,-1.2,0.5,-2.1l-0.1,-1.3C439.774452555,239.36423357699994,439.074452555,240.26423357699997,438.574452555,242.06423357699992L438.574452555,242.06423357699992ZM387.074452555,316.86423357699994l0.1,0.6000000000000001c0.1,0.9,-0.4,1.4,-1.4,1.5l-0.1,-0.6000000000000001C385.574452555,317.5642335769999,386.074452555,317.16423357699995,387.074452555,316.86423357699994L387.074452555,316.86423357699994ZM385.774452555,319.66423357699995c0.1,1.3,-0.8,4.5,-2.6,9.7l-2.2,0.2c-0.1,-0.9,1.1,-4.1,3.4,-9.7L385.774452555,319.66423357699995ZM409.87445255499995,340.5642335769999c0.1,0.7000000000000001,-1.1,1.5,-3.4,2.3l-4.4,-0.30000000000000004l-1.4,0.1l-0.1,-1.3L409.87445255499995,340.5642335769999ZM414.17445255499996,340.96423357699996l0.1,0.6000000000000001l-3.6,0.30000000000000004l-0.1,-0.6000000000000001L414.17445255499996,340.96423357699996Z"/>
</g>
</svg>