<svg xmlns="http://www.w3.org/2000/svg" width="2500px" height="2500px" viewBox="0 0 256 256" preserveAspectRatio="xMidYMid"  xmlns:xlink="http://www.w3.org/1999/xlink"><rect id="svgEditorBackground" x="0" y="0" width="256" height="256" style="fill: none; stroke: none;"/><path d="M77.965,95.0497518248175l48.57,-28.042a3.9290000000000003,3.9290000000000003,0,0,1,3.93,0l48.57,28.042A3.932,3.932,0,0,1,181,98.45275182481751v56.084c0,1.403,-0.7500000000000001,2.7,-1.965,3.403l-48.57,28.042a3.9290000000000003,3.9290000000000003,0,0,1,-3.93,0l-48.57,-28.042A3.931,3.931,0,0,1,76,154.53675182481751V98.4517518248175c0.0010000000000000002,-1.404,0.7500000000000001,-2.7,1.965,-3.403" fill="#e20039"/><path d="M254.417,121.89875182481751l-58.093999999999994,-101.06700000000001c-2.1100000000000136,-3.654,-6.00800000000001,-6.35,-10.228000000000009,-6.35h-116.189c-4.219999999999999,0,-8.119999999999997,2.696,-10.230000000000004,6.35l-58.093,100.84400000000001c-2.11,3.655000000000001,-2.11,8.268,0,11.923000000000002l58.093,100.23899999999999c2.1099999999999994,3.6539999999999964,6.010000000000005,5.521999999999991,10.230000000000004,5.521999999999991h116.18799999999999c4.219999999999999,0,8.119,-1.8120000000000118,10.228000000000009,-5.467000000000013l58.093999999999994,-100.402c2.112000000000023,-3.6530000000000062,2.112000000000023,-7.938000000000002,0,-11.591999999999999ZM206.312,170.4987518248175c0,1.4850000000000136,-0.8940000000000057,2.8600000000000136,-2.181999999999988,3.6040000000000134l-73.999,42.69300000000001a4.21,4.21,0,0,1,-4.186000000000007,0l-74.056,-42.692999999999984c-1.286999999999999,-0.7439999999999999,-2.1880000000000024,-2.117999999999995,-2.1880000000000024,-3.6049999999999898v-85.38800000000005c0,-1.4869999999999948,0.8879999999999982,-2.8599999999999994,2.176000000000002,-3.603999999999999l73.995,-42.694a4.202,4.202,0,0,1,4.184999999999988,0l74.06,42.694c1.2889999999999873,0.7439999999999999,2.194999999999993,2.1170000000000044,2.194999999999993,3.603999999999999v85.38800000000002Z" fill="#800020"/></svg>