<svg xmlns="http://www.w3.org/2000/svg" width="2500px" height="2500px" viewBox="0 0 512 512"  xmlns:xlink="http://www.w3.org/1999/xlink"><rect id="svgEditorBackground" x="0" y="0" width="512" height="512" style="fill: none; stroke: none;"/><path d="M3.332,289.0318056112v-56.981h71.144v-3.3329999999999984h-71.144v-51.983000000000004h75.642v-3.332h-78.97399999999999v118.961h79.64v-3.3319999999999936h-76.307ZM143.787,206.7248056112l-29.489999999999995,38.821l-28.825000000000003,-38.82h-4.332000000000008l31.156999999999996,41.32l-34.157,44.31699999999999h3.9989999999999952l32.15599999999999,-41.82000000000001l32.32300000000001,41.81999999999999h4.164999999999992l-34.322,-44.319l31.323000000000008,-41.32h-3.9979999999999905ZM160.781,321.6878056112v-53.315h0.3329999999999985c2,7.775000000000006,5.943000000000012,14.022999999999996,11.830000000000013,18.744c5.8870000000000005,4.719999999999999,13.384000000000015,7.081000000000003,22.49199999999999,7.081000000000003c5.8870000000000005,0,11.108000000000004,-1.1940000000000026,15.662000000000006,-3.5819999999999936s8.358000000000004,-5.6370000000000005,11.413000000000011,-9.747c3.054000000000002,-4.109999999999999,5.3870000000000005,-8.885999999999996,6.9979999999999905,-14.329000000000008c1.6100000000000136,-5.442000000000007,2.4159999999999973,-11.162999999999997,2.4159999999999973,-17.159999999999997c0,-6.442999999999998,-0.8340000000000033,-12.385999999999996,-2.5,-17.828000000000003c-1.6659999999999968,-5.442999999999998,-4.081999999999994,-10.164000000000001,-7.247000000000014,-14.161999999999999c-3.1659999999999973,-3.9990000000000023,-6.9979999999999905,-7.109999999999999,-11.497000000000014,-9.329999999999998c-4.4979999999999905,-2.2220000000000013,-9.580000000000013,-3.3329999999999984,-15.245000000000005,-3.3329999999999984c-4.3319999999999945,0,-8.358000000000004,0.6389999999999995,-12.079000000000008,1.9159999999999968c-3.7210000000000036,1.2779999999999987,-7.025000000000006,3.0820000000000007,-9.913000000000011,5.414999999999999a36.674,36.674,0,0,0,-7.4979999999999905,8.247c-2.1100000000000136,3.1659999999999973,-3.7210000000000036,6.6370000000000005,-4.831999999999994,10.414000000000001h-0.3329999999999985v-23.994h-3.3319999999999936v114.963h3.3319999999999936ZM195.436,291.0308056112c-10.439999999999998,0,-18.826999999999998,-3.5819999999999936,-25.157999999999987,-10.745999999999995c-6.330999999999989,-7.1640000000000015,-9.497000000000014,-17.467,-9.497000000000014,-30.906999999999996c0,-5.554000000000002,0.7779999999999916,-10.829999999999998,2.3329999999999984,-15.828000000000003c1.5550000000000068,-4.9979999999999976,3.804000000000002,-9.385999999999996,6.746999999999986,-13.161999999999999c2.9439999999999884,-3.777000000000001,6.581999999999994,-6.776000000000003,10.913000000000011,-8.997c4.3319999999999945,-2.2220000000000013,9.219999999999999,-3.3329999999999984,14.662000000000006,-3.3329999999999984c5.554000000000002,0,10.413999999999987,1.110999999999997,14.579000000000008,3.3329999999999984c4.164999999999992,2.2209999999999965,7.609000000000009,5.2479999999999976,10.330000000000013,9.079999999999998s4.7760000000000105,8.219999999999999,6.164999999999992,13.161999999999999c1.3880000000000052,4.942999999999998,2.0819999999999936,10.191000000000003,2.0819999999999936,15.745000000000005c0,4.998999999999995,-0.6380000000000053,9.969999999999999,-1.9159999999999968,14.912000000000006c-1.2769999999999868,4.942999999999998,-3.2489999999999952,9.385999999999996,-5.914999999999992,13.329999999999998c-2.664999999999992,3.9420000000000073,-6.0800000000000125,7.162999999999997,-10.24600000000001,9.662999999999997c-4.165999999999997,2.4989999999999952,-9.192000000000007,3.7480000000000047,-15.079000000000008,3.7480000000000047ZM250.252,292.3638056112v-48.483999999999995c0,-4.665000000000006,0.6659999999999969,-9.219999999999999,2,-13.661999999999999c1.3319999999999936,-4.442999999999998,3.3870000000000005,-8.359000000000002,6.163999999999987,-11.746000000000002c2.776999999999987,-3.387999999999998,6.302999999999997,-6.054000000000002,10.579999999999984,-7.9979999999999976c4.2760000000000105,-1.9440000000000026,9.358000000000004,-2.7490000000000023,15.245000000000005,-2.4159999999999973v-3.3320000000000007c-5.110000000000014,-0.10999999999999943,-9.579999999999984,0.4439999999999992,-13.411999999999978,1.6659999999999968c-3.833000000000027,1.2220000000000013,-7.1370000000000005,2.887999999999998,-9.913999999999987,4.999000000000002c-2.776999999999987,2.1099999999999994,-4.9979999999999905,4.581000000000003,-6.663999999999987,7.4140000000000015a33.15,33.15,0,0,0,-3.6659999999999973,9.079999999999998h-0.3329999999999985v-21.160000000000004h-3.3319999999999936v85.64h3.3319999999999936ZM288.406,250.2108056112h71.64299999999997c0.22300000000001322,-5.8870000000000005,-0.3600000000000137,-11.551000000000002,-1.7490000000000236,-16.994c-1.3879999999999768,-5.442999999999998,-3.6100000000000136,-10.274999999999999,-6.663999999999987,-14.494999999999997c-3.055000000000007,-4.2209999999999965,-6.9979999999999905,-7.609000000000002,-11.829999999999984,-10.164000000000001c-4.831999999999994,-2.5549999999999997,-10.579999999999984,-3.8320000000000007,-17.24399999999997,-3.8320000000000007c-4.776999999999987,0,-9.442000000000007,1,-13.995999999999981,3c-4.553999999999974,1.9990000000000023,-8.552999999999997,4.9140000000000015,-11.995999999999981,8.746000000000002c-3.4429999999999836,3.8320000000000007,-6.220000000000027,8.524999999999999,-8.329999999999984,14.079999999999998c-2.1100000000000136,5.552999999999997,-3.1659999999999973,11.883999999999993,-3.1659999999999973,18.993000000000002c0,6.331000000000003,0.7219999999999801,12.245999999999995,2.1659999999999973,17.744c1.4440000000000168,5.498000000000005,3.6650000000000205,10.275000000000006,6.663999999999987,14.329000000000008c3,4.054000000000002,6.860000000000014,7.192000000000007,11.579999999999984,9.412999999999997c4.720000000000027,2.221999999999994,10.413000000000011,3.277000000000001,17.077999999999975,3.1659999999999973c9.774000000000001,0,17.994000000000028,-2.75,24.658000000000015,-8.247c6.6650000000000205,-5.498999999999995,10.608000000000004,-13.245999999999995,11.829999999999984,-23.242999999999995h-3.3319999999999936c-1.4440000000000168,9.442000000000007,-5.137999999999977,16.522999999999996,-11.079999999999984,21.242999999999995c-5.942999999999984,4.721000000000004,-13.411999999999978,7.081000000000003,-22.410000000000025,7.081000000000003c-6.1089999999999804,0,-11.274000000000001,-1.0550000000000068,-15.495000000000005,-3.1650000000000063c-4.220000000000027,-2.1099999999999994,-7.663999999999987,-4.998999999999995,-10.329999999999984,-8.664000000000001c-2.6650000000000205,-3.6659999999999973,-4.6370000000000005,-7.969999999999999,-5.913999999999987,-12.912999999999997c-1.27800000000002,-4.942000000000007,-1.97199999999998,-10.301999999999992,-2.083000000000027,-16.078000000000003ZM356.717,246.8788056112h-68.31c0.3319999999999938,-5.998000000000005,1.4429999999999836,-11.384999999999998,3.3310000000000173,-16.161c1.88900000000001,-4.777000000000001,4.360000000000014,-8.859000000000002,7.4150000000000205,-12.246000000000002c3.0539999999999736,-3.387999999999998,6.6089999999999804,-5.969999999999999,10.663000000000011,-7.7479999999999976c4.053999999999974,-1.777000000000001,8.413999999999987,-2.6659999999999973,13.079000000000008,-2.6659999999999973c5.553999999999974,0,10.439999999999998,1.0279999999999987,14.661999999999978,3.0829999999999984c4.220000000000027,2.0549999999999997,7.747000000000014,4.859999999999999,10.579999999999984,8.414000000000001c2.8319999999999936,3.554000000000002,4.970000000000027,7.692,6.413999999999987,12.411999999999999c1.4440000000000168,4.7209999999999965,2.1659999999999973,9.692,2.1659999999999973,14.911999999999999ZM429.19399999999996,232.0508056112h3.3319999999999936c0,-9.552999999999997,-2.776999999999987,-16.495000000000005,-8.329999999999984,-20.826999999999998c-5.555000000000007,-4.332000000000001,-13.108000000000004,-6.498000000000001,-22.660000000000025,-6.498000000000001c-5.3319999999999945,0,-9.829999999999984,0.6670000000000017,-13.495999999999981,1.9999999999999964c-3.6650000000000205,1.3320000000000007,-6.663999999999987,3.054000000000002,-8.997000000000014,5.1640000000000015c-2.3319999999999936,2.1099999999999994,-3.9979999999999905,4.442999999999998,-4.9979999999999905,6.9979999999999976c-1,2.5549999999999997,-1.5,4.999000000000002,-1.5,7.331000000000003c0,4.664999999999999,0.8330000000000268,8.386000000000003,2.5,11.163000000000004c1.6659999999999968,2.777000000000001,4.2760000000000105,4.942999999999998,7.829999999999984,6.498000000000005c2.444000000000017,1.1099999999999994,5.220000000000027,2.1099999999999994,8.331000000000017,3c3.1100000000000136,0.8880000000000053,6.720000000000027,1.8319999999999936,10.829999999999984,2.831000000000003c3.6650000000000205,0.8900000000000007,7.274999999999977,1.7780000000000058,10.829999999999984,2.6659999999999973c3.5539999999999736,0.8889999999999959,6.692000000000007,2.0829999999999984,9.413000000000011,3.5819999999999936c2.72199999999998,1.5,4.942999999999984,3.4159999999999973,6.6650000000000205,5.748999999999995c1.7210000000000036,2.3319999999999936,2.5819999999999936,5.387000000000015,2.5819999999999936,9.162999999999997c0,3.6659999999999973,-0.8600000000000136,6.775999999999996,-2.5819999999999936,9.329999999999998a20.815,20.815,0,0,1,-6.581000000000017,6.248999999999995c-2.6659999999999973,1.6099999999999994,-5.637999999999977,2.7759999999999962,-8.913999999999987,3.4980000000000047c-3.2769999999999873,0.7219999999999943,-6.470000000000027,1.0829999999999984,-9.579999999999984,1.0829999999999984c-10.108000000000004,0,-17.855999999999995,-2.2489999999999952,-23.242999999999995,-6.747c-5.3870000000000005,-4.498999999999995,-8.079999999999984,-11.579999999999998,-8.079999999999984,-21.244h-3.333000000000027c0,10.775000000000006,2.915999999999997,18.661,8.747000000000014,23.659999999999997c5.831999999999994,4.998000000000005,14.468000000000018,7.497,25.908999999999992,7.497c3.6650000000000205,0,7.358000000000004,-0.41700000000000165,11.079999999999984,-1.25c3.7200000000000273,-0.8329999999999985,7.052999999999997,-2.192999999999998,9.995999999999981,-4.081999999999994a22.592,22.592,0,0,0,7.163999999999987,-7.329999999999998c1.8330000000000268,-3,2.75,-6.665000000000006,2.75,-10.997c0,-4.109999999999999,-0.8059999999999833,-7.442000000000007,-2.4159999999999973,-9.997c-1.61099999999999,-2.554000000000002,-3.7210000000000036,-4.665000000000006,-6.3319999999999945,-6.331000000000003c-2.6100000000000136,-1.6659999999999968,-5.552999999999997,-2.9710000000000036,-8.829999999999984,-3.9150000000000063a516.08,516.08,0,0,0,-9.913999999999987,-2.75a1726.675,1726.675,0,0,0,-12.245999999999981,-3.1650000000000063c-3.4979999999999905,-0.8889999999999959,-6.747000000000014,-1.9440000000000026,-9.745999999999981,-3.1659999999999973c-2.8879999999999773,-1.2219999999999942,-5.192999999999984,-2.9710000000000036,-6.9150000000000205,-5.2479999999999976c-1.72199999999998,-2.277000000000001,-2.5819999999999936,-5.526000000000003,-2.5819999999999936,-9.747c0,-0.777000000000001,0.22199999999998005,-2.1659999999999973,0.6659999999999969,-4.164999999999999c0.4440000000000168,-2,1.5,-4.027000000000001,3.1659999999999973,-6.082000000000001c1.6659999999999968,-2.054000000000002,4.220000000000027,-3.8870000000000005,7.663999999999987,-5.4979999999999976c3.4429999999999836,-1.6099999999999994,8.163999999999987,-2.4159999999999973,14.161999999999978,-2.4159999999999973c4.110000000000014,0,7.858000000000004,0.44500000000000034,11.245999999999981,1.3329999999999984c3.3879999999999773,0.889000000000003,6.3039999999999745,2.3049999999999997,8.747000000000014,4.249000000000002c2.444000000000017,1.9440000000000026,4.3319999999999945,4.414999999999999,5.6650000000000205,7.4140000000000015c1.3330000000000268,3,2,6.664999999999999,2,10.997ZM506.335,232.0508056112h3.3319999999999936c0,-9.552999999999997,-2.7760000000000105,-16.495000000000005,-8.329999999999984,-20.826999999999998c-5.553999999999974,-4.332000000000001,-13.106999999999971,-6.498000000000001,-22.660000000000025,-6.498000000000001c-5.331000000000017,0,-9.829999999999984,0.6670000000000017,-13.495000000000005,1.9999999999999964c-3.6659999999999973,1.3320000000000007,-6.6650000000000205,3.054000000000002,-8.997000000000014,5.1640000000000015c-2.333000000000027,2.1099999999999994,-3.9990000000000236,4.442999999999998,-4.999000000000024,6.9979999999999976c-1,2.5549999999999997,-1.4990000000000236,4.999000000000002,-1.4990000000000236,7.331000000000003c0,4.664999999999999,0.8330000000000268,8.386000000000003,2.5,11.163000000000004c1.6650000000000207,2.777000000000001,4.2760000000000105,4.942999999999998,7.829999999999984,6.498000000000005c2.444000000000017,1.1099999999999994,5.220000000000027,2.1099999999999994,8.329999999999984,3c3.1100000000000136,0.8880000000000053,6.720000000000027,1.8319999999999936,10.829999999999984,2.831000000000003c3.6659999999999973,0.8900000000000007,7.2760000000000105,1.7780000000000058,10.829999999999984,2.6659999999999973c3.555000000000007,0.8889999999999959,6.692000000000007,2.0829999999999984,9.413999999999987,3.5819999999999936c2.7210000000000036,1.5,4.942999999999984,3.4159999999999973,6.663999999999987,5.748999999999995c1.72199999999998,2.3319999999999936,2.583000000000027,5.387000000000015,2.583000000000027,9.162999999999997c0,3.6659999999999973,-0.8609999999999901,6.775999999999996,-2.583000000000027,9.329999999999998a20.815,20.815,0,0,1,-6.579999999999984,6.248999999999995c-2.666999999999973,1.6099999999999994,-5.637999999999977,2.7759999999999962,-8.91500000000002,3.4980000000000047c-3.2760000000000105,0.7219999999999943,-6.470000000000027,1.0829999999999984,-9.579999999999984,1.0829999999999984c-10.108000000000004,0,-17.855000000000018,-2.2489999999999952,-23.24200000000002,-6.747c-5.387999999999977,-4.498999999999995,-8.081000000000017,-11.579999999999998,-8.081000000000017,-21.244h-3.3319999999999936c0,10.775000000000006,2.9150000000000205,18.661,8.747000000000014,23.659999999999997c5.831000000000017,4.998000000000005,14.466999999999985,7.497,25.908000000000015,7.497c3.6659999999999973,0,7.3589999999999804,-0.41700000000000165,11.079999999999984,-1.25c3.7200000000000273,-0.8329999999999985,7.052999999999997,-2.192999999999998,9.997000000000014,-4.081999999999994a22.592,22.592,0,0,0,7.163999999999987,-7.329999999999998c1.8330000000000268,-3,2.7490000000000236,-6.665000000000006,2.7490000000000236,-10.997c0,-4.109999999999999,-0.8050000000000068,-7.442000000000007,-2.4159999999999973,-9.997c-1.6100000000000136,-2.554000000000002,-3.7200000000000273,-4.665000000000006,-6.331000000000017,-6.331000000000003c-2.6100000000000136,-1.6659999999999968,-5.553999999999974,-2.9710000000000036,-8.829999999999984,-3.9150000000000063a516.071,516.071,0,0,0,-9.913999999999987,-2.75a1726.65,1726.65,0,0,0,-12.245999999999981,-3.1650000000000063c-3.4990000000000236,-0.8889999999999959,-6.7479999999999905,-1.9440000000000026,-9.747000000000014,-3.1659999999999973c-2.8879999999999773,-1.2219999999999942,-5.192999999999984,-2.9710000000000036,-6.913999999999987,-5.2479999999999976c-1.72199999999998,-2.277000000000001,-2.583000000000027,-5.526000000000003,-2.583000000000027,-9.747c0,-0.777000000000001,0.22199999999998005,-2.1659999999999973,0.6669999999999734,-4.164999999999999c0.4440000000000168,-2,1.5,-4.027000000000001,3.1650000000000205,-6.082000000000001c1.6659999999999968,-2.054000000000002,4.221000000000004,-3.8870000000000005,7.663999999999987,-5.4979999999999976c3.444000000000017,-1.6099999999999994,8.163999999999987,-2.4159999999999973,14.163000000000011,-2.4159999999999973c4.110000000000014,0,7.858000000000004,0.44500000000000034,11.245999999999981,1.3329999999999984c3.3879999999999773,0.889000000000003,6.302999999999997,2.3049999999999997,8.747000000000014,4.249000000000002c2.444000000000017,1.9440000000000026,4.3319999999999945,4.414999999999999,5.6650000000000205,7.4140000000000015c1.3330000000000268,3,2,6.664999999999999,2,10.997Z" fill="#800020"/></svg>