<svg xmlns="http://www.w3.org/2000/svg" width="2500px" height="2500px" viewBox="0 0 282 282" preserveAspectRatio="xMinYMin meet"  xmlns:xlink="http://www.w3.org/1999/xlink"><rect id="svgEditorBackground" x="0" y="0" width="282" height="282" style="fill: none; stroke: none;"/><g fill="#800020"><path d="M129.50199599198402,3.58c6.962000000000003,-3.985,16.029999999999987,-4.003,22.986000000000004,0c34.995000000000005,19.774,70.001,39.517,104.99000000000001,59.303c6.580999999999989,3.7069999999999936,10.983000000000004,11.031000000000006,10.915999999999997,18.614000000000004v118.968c0.04900000000000661,7.896999999999991,-4.788000000000011,15.395999999999987,-11.730999999999995,19.019000000000005c-34.879999999999995,19.664999999999992,-69.74200000000002,39.35400000000001,-104.61599999999999,59.01899999999998c-7.1059999999999945,4.062999999999988,-16.355999999999995,3.75,-23.239999999999995,-0.6460000000000151c-10.457000000000008,-6.062000000000012,-20.932000000000002,-12.093999999999994,-31.39,-18.149999999999977c-2.1370000000000005,-1.274000000000001,-4.5460000000000065,-2.288000000000011,-6.055000000000007,-4.360000000000014c1.3340000000000032,-1.7980000000000018,3.718999999999994,-2.0219999999999914,5.6569999999999965,-2.806999999999988c4.364999999999995,-1.3880000000000052,8.373999999999995,-3.616000000000014,12.384,-5.777999999999992c1.0139999999999958,-0.6939999999999886,2.2519999999999953,-0.4279999999999974,3.2240000000000038,0.19300000000001208c8.941999999999993,5.1270000000000095,17.804999999999993,10.402999999999992,26.777,15.481000000000023c1.9139999999999873,1.1050000000000182,3.852000000000004,-0.36200000000002325,5.4879999999999995,-1.274000000000001c34.22800000000001,-19.345,68.49800000000002,-38.61699999999999,102.72,-57.96800000000002c1.2680000000000007,-0.6100000000000136,1.968999999999994,-1.9559999999999889,1.8660000000000139,-3.3449999999999993c0.024000000000000913,-39.245000000000005,0.006000000000000229,-78.497,0.012000000000000458,-117.742c0.14500000000001023,-1.5759999999999934,-0.766999999999996,-3.0250000000000057,-2.1920000000000073,-3.6700000000000017c-34.758999999999986,-19.575000000000003,-69.5,-39.18,-104.25300000000001,-58.76a3.621,3.621,0,0,0,-4.093999999999994,-0.006000000000000229c-34.75300000000003,19.585999999999984,-69.48800000000003,39.20899999999999,-104.24100000000003,58.78299999999998c-1.4199999999999984,0.6460000000000009,-2.373000000000001,2.070999999999998,-2.2040000000000006,3.6530000000000062c0.006000000000000229,39.245000000000005,0,78.49699999999999,0,117.74800000000002a3.329,3.329,0,0,0,1.8900000000000006,3.3029999999999973c9.274000000000001,5.2590000000000146,18.56,10.480999999999995,27.84,15.722000000000008c5.2280000000000015,2.813999999999993,11.646999999999998,4.48599999999999,17.406999999999996,2.3300000000000125c5.082999999999998,-1.8230000000000075,8.646,-7.009999999999991,8.548999999999992,-12.40700000000001c0.048000000000001826,-39.01599999999999,-0.024000000000000913,-78.03799999999998,0.03600000000000137,-117.048c-0.12699999999999537,-1.7319999999999993,1.5160000000000053,-3.1629999999999967,3.200000000000003,-3c4.456000000000003,-0.030000000000001144,8.917999999999992,-0.06000000000000229,13.373999999999995,0.012000000000000458c1.8599999999999994,-0.0420000000000016,3.1400000000000006,1.8229999999999933,2.9099999999999966,3.567999999999998c-0.018000000000000686,39.26299999999999,0.048000000000001826,78.527,-0.030000000000001144,117.79c0.012000000000000458,10.463999999999999,-4.287000000000006,21.849999999999994,-13.965999999999994,26.97c-11.924000000000007,6.1769999999999925,-26.662,4.86699999999999,-38.442,-1.0560000000000116c-10.198,-5.090000000000003,-19.93,-11.097000000000008,-29.947,-16.55000000000001c-6.96099999999999,-3.6030000000000086,-11.77399999999999,-11.132000000000005,-11.724999999999989,-19.022999999999996v-118.96900000000001c-0.07300000000000006,-7.739999999999995,4.504,-15.197000000000003,11.289999999999997,-18.85c34.874,-19.680999999999997,69.74199999999999,-39.376999999999995,104.61000000000001,-59.067Z"/><path d="M146.928 85.99c15.21-.979 31.493-.58 45.18 6.913 10.597 5.742 16.472 17.793 16.659 29.566-.296 1.588-1.956 2.464-3.472 2.355-4.413-.006-8.827.06-13.24-.03-1.872.072-2.96-1.654-3.195-3.309-1.268-5.633-4.34-11.212-9.642-13.929-8.139-4.075-17.576-3.87-26.451-3.785-6.479.344-13.446.905-18.935 4.715-4.214 2.886-5.494 8.712-3.99 13.404 1.418 3.369 5.307 4.456 8.489 5.458 18.33 4.794 37.754 4.317 55.734 10.626 7.444 2.572 14.726 7.572 17.274 15.366 3.333 10.446 1.872 22.932-5.56 31.318-6.027 6.901-14.805 10.657-23.56 12.697-11.647 2.597-23.734 2.663-35.562 1.51-11.122-1.268-22.696-4.19-31.282-11.768-7.342-6.375-10.928-16.308-10.572-25.895.085-1.619 1.697-2.748 3.248-2.615 4.444-.036 8.888-.048 13.332.006 1.775-.127 3.091 1.407 3.182 3.08.82 5.367 2.837 11 7.517 14.182 9.032 5.827 20.365 5.428 30.707 5.591 8.568-.38 18.186-.495 25.178-6.158 3.689-3.23 4.782-8.634 3.785-13.283-1.08-3.925-5.186-5.754-8.712-6.95-18.095-5.724-37.736-3.647-55.656-10.12-7.275-2.571-14.31-7.432-17.105-14.906-3.9-10.578-2.113-23.662 6.098-31.765 8.006-8.06 19.563-11.164 30.551-12.275z"/></g></svg>