<svg xmlns="http://www.w3.org/2000/svg" width="2500px" height="2500px" viewBox="0 0 256 256" preserveAspectRatio="xMidYMid"  xmlns:xlink="http://www.w3.org/1999/xlink"><rect id="svgEditorBackground" x="0" y="0" width="256" height="256" style="fill: none; stroke: none;"/><path d="M177.381,173.93737956204382c9.447000000000003,-0.9780000000000085,16.614000000000004,-9.122000000000014,16.28800000000001,-18.896000000000015c-0.3249999999999888,-9.772999999999996,-8.469999999999999,-17.591999999999985,-18.242999999999995,-17.591999999999985h-0.6510000000000107c-10.099999999999994,0.3259999999999935,-17.918000000000006,8.795999999999992,-17.592000000000013,18.89500000000001c0.3259999999999935,4.8870000000000005,2.280000000000001,9.121999999999986,5.211999999999989,12.054000000000002c-11.075999999999993,21.828000000000003,-28.01599999999999,37.791,-53.426,51.147999999999996c-17.266000000000005,9.121999999999986,-35.18300000000001,12.379999999999995,-53.1,10.099999999999994c-14.660000000000004,-1.9550000000000125,-26.062,-8.469999999999999,-33.23,-19.22200000000001c-10.424,-15.962999999999994,-11.401,-33.22999999999999,-2.6050000000000004,-50.49600000000001c6.190000000000001,-12.379999999999995,15.962,-21.50200000000001,22.151999999999997,-26.062999999999988c-1.3029999999999973,-4.234999999999999,-3.2580000000000027,-11.402000000000001,-4.234999999999999,-16.614000000000004c-47.237,34.206999999999994,-42.35,80.46799999999999,-28.016,102.29499999999999c10.75,16.289999999999992,32.577,26.38900000000001,56.68399999999999,26.38900000000001c6.515000000000001,0,13.030000000000001,-0.6519999999999869,19.545999999999992,-2.280000000000001c41.699,-8.14500000000001,73.299,-32.905,91.21600000000001,-69.71799999999999ZM234.71699999999998,133.54037956204382c-24.759000000000015,-28.995000000000005,-61.245000000000005,-44.958,-102.94400000000002,-44.958h-5.212000000000003c-2.932000000000002,-5.864000000000004,-9.122,-9.774000000000001,-15.963000000000008,-9.774000000000001h-0.6520000000000011c-10.097999999999956,0.3259999999999935,-17.915999999999954,8.795999999999992,-17.59099999999995,18.895999999999987c0.3259999999999935,9.772999999999996,8.469999999999999,17.592,18.242999999999995,17.592h0.6509999999999964c7.167000000000002,-0.3259999999999935,13.357,-4.8870000000000005,15.962999999999994,-11.076999999999998h5.864000000000004c24.758999999999986,0,48.214,7.167000000000002,69.39000000000001,21.176000000000002c16.28800000000001,10.751000000000005,28.01599999999999,24.75999999999999,34.531000000000006,41.70000000000002c5.538000000000011,13.682999999999993,5.211999999999989,27.039999999999992,-0.6519999999999869,38.442999999999984c-9.12100000000001,17.26599999999999,-24.431999999999988,26.714,-44.629999999999995,26.714c-13.031000000000006,0,-25.409999999999997,-3.9099999999999966,-31.925999999999988,-6.842000000000013c-3.5829999999999984,3.2580000000000098,-10.09899999999999,8.469999999999999,-14.659999999999997,11.729000000000013c14.008999999999986,6.514999999999986,28.34299999999999,10.09899999999999,42.025000000000006,10.09899999999999c31.274,0,54.403999999999996,-17.266999999999996,63.19999999999999,-34.533000000000015c9.447000000000003,-18.896000000000015,8.795000000000016,-51.47399999999999,-15.637,-79.16500000000002ZM69.225,179.47437956204382c0.3259999999999935,9.774000000000001,8.469999999999999,17.592000000000013,18.242999999999995,17.592000000000013h0.6520000000000011c10.099000000000004,-0.3249999999999888,17.917,-8.795999999999992,17.590999999999994,-18.89500000000001c-0.3250000000000029,-9.774000000000001,-8.469999999999999,-17.592000000000013,-18.242999999999995,-17.592000000000013h-0.6509999999999964c-0.6520000000000011,0,-1.6299999999999957,0,-2.280000000000001,0.3249999999999888c-13.357,-22.15299999999999,-18.894999999999996,-46.25999999999999,-16.939999999999998,-72.323c1.3020000000000067,-19.546999999999997,7.817999999999998,-36.488,19.22,-50.497c9.447000000000003,-12.054000000000002,27.689999999999998,-17.918,40.07000000000001,-18.243c34.531000000000006,-0.6520000000000011,49.19,42.351,50.168000000000006,59.617999999999995c4.235000000000014,0.9770000000000039,11.401999999999987,3.2579999999999956,16.288999999999987,4.8870000000000005c-3.9099999999999966,-52.775999999999996,-36.486999999999995,-80.142,-67.75999999999999,-80.142c-29.319999999999993,0,-56.35900000000001,21.176,-67.11,52.451c-14.985,41.70000000000001,-5.212000000000003,81.77100000000002,13.031000000000006,113.37200000000001c-1.6280000000000001,2.280000000000001,-2.6059999999999945,5.864000000000004,-2.280000000000001,9.448000000000008Z" fill="#800020"/></svg>