<svg xmlns="http://www.w3.org/2000/svg" viewBox="0 0 1200 1200" width="2500px" height="2500px"  xmlns:xlink="http://www.w3.org/1999/xlink"><rect id="svgEditorBackground" x="0" y="0" width="1200" height="1200" style="fill: none; stroke: none;"/><path fill="#e20039" d="M600 0l530.3 300v600L600 1200 69.7 900V300z"/><path fill="#bb002f" d="M1035.6,879.3l-418.1,236.5v-184.19999999999993l260.5000000000001,-143.30000000000007l157.5999999999999,91ZM1064.1999999999998,853.4v-494.59999999999997l-153,88.30000000000001v317.9l153,88.39999999999998ZM162.69999999999982,879.3l418.1,236.5v-184.19999999999993l-260.49999999999983,-143.30000000000007l-157.6,91ZM134.09999999999982,853.4v-494.59999999999997l152.99999999999997,88.30000000000001v317.9l-153,88.39999999999998ZM152,326.8l428.79999999999995,-242.60000000000002v178.10000000000002l-274.69999999999993,151.09999999999997l-2.1000000000000227,1.1999999999999886l-152,-87.80000000000001ZM1046.3,326.8l-428.79999999999995,-242.60000000000002v178.10000000000002l274.70000000000005,151.09999999999997l2.1000000000000227,1.1999999999999886l152.0000000000001,-87.80000000000001Z"/><path fill="#800020" d="M580.8,889.7l-257,-141.29999999999995v-280l257,148.39999999999998v272.9M617.5,889.7l257,-141.29999999999995v-280l-257,148.39999999999998v272.9M341.2,436.00000000000006l258.00000000000006,-141.90000000000003l258,141.89999999999998l-258,149l-258,-149"/></svg>